<svg width="31" height="33" viewBox="0 0 31 33" fill="none" xmlns="http://www.w3.org/2000/svg">
<path d="M12.5405 31.4128C10.8642 32.6617 8.56648 32.6519 6.90677 31.4156C6.91208 31.4112 6.9175 31.4067 6.92301 31.402C7.05849 31.2883 7.25531 31.1199 7.50196 30.8998C7.99521 30.4597 8.68797 29.8132 9.48797 28.9854C11.0874 27.3305 13.1185 24.9485 14.8406 22.0426C18.1818 16.4046 20.3717 8.76851 15.9516 0.656604C17.2201 1.55876 19.9369 3.65271 22.1155 6.43859C24.3791 9.3332 26.0306 12.9332 24.9435 16.7052L24.9435 16.7053C24.3179 18.8806 23.0474 21.0192 21.4823 23.0091C20.4116 24.3704 19.2081 25.6571 17.9797 26.8343L17.9794 26.8346C16.6455 28.1196 15.285 29.276 14.0504 30.2539C13.5189 30.6743 13.0121 31.0618 12.5406 31.4127L12.5405 31.4128Z" stroke="url(#paint0_linear_1125_14934)" stroke-width="0.4"/>
<path d="M8.97359 27.8884C7.35161 29.1931 5.0625 29.2757 3.35816 28.1153C10.4322 22.688 13.4861 15.6952 14.7687 10.0435C15.4164 7.18946 15.6129 4.67573 15.6475 2.87483C15.6647 1.97424 15.6415 1.2515 15.6139 0.753078C15.6087 0.659938 15.6034 0.574622 15.5982 0.497441C17.1233 1.93414 18.661 3.69649 19.7132 5.67787C20.8513 7.82095 21.4166 10.2101 20.7969 12.7216L20.7969 12.7216C20.1603 15.3038 18.6337 17.8682 16.7771 20.2114C14.922 22.5529 12.7468 24.662 10.8273 26.3335L10.8271 26.3337C10.1712 26.9069 9.54482 27.4277 8.97359 27.8884Z" stroke="url(#paint1_linear_1125_14934)" stroke-width="0.4"/>
<path d="M15.429 0.446314C17.3398 3.05076 18.594 6.16453 17.7745 9.48734L17.7745 9.48742C16.5909 14.2944 12.3256 19.0257 8.63356 22.3659L8.63349 22.366C7.6759 23.2331 6.76123 24.0039 5.95125 24.6544L5.95101 24.6546C4.32824 25.9621 2.03743 26.0418 0.332622 24.8793C5.54821 20.7591 9.33427 14.6037 11.8219 9.46607C13.0835 6.86055 14.0135 4.51168 14.6283 2.81392C14.9357 1.96495 15.1644 1.27855 15.3163 0.803982C15.3603 0.666621 15.3978 0.547 15.429 0.446314Z" stroke="url(#paint2_linear_1125_14934)" stroke-width="0.4"/>
<path d="M14.7726 0.396294C12.3592 2.09053 3.33931 9.03247 5.56666 16.7606L14.7726 0.396294ZM14.7726 0.396294C14.846 0.344717 14.9133 0.298028 14.9741 0.256341L14.7726 0.396294ZM12.723 26.8347L12.7226 26.8343C11.4943 25.6571 10.2908 24.3704 9.22004 23.0091C7.65454 21.0188 6.38496 18.8806 5.75885 16.7052L5.75883 16.7052C4.67175 12.9334 6.32326 9.33354 8.58689 6.43894C10.7655 3.65309 13.4822 1.55905 14.7508 0.656651C10.3307 8.76854 12.5206 16.4046 15.8618 22.0426C17.5839 24.9485 19.615 27.3305 21.2144 28.9854C22.0144 29.8132 22.7072 30.4597 23.2004 30.8998C23.4471 31.1199 23.6439 31.2883 23.7794 31.402C23.7849 31.4067 23.7903 31.4112 23.7956 31.4156C22.1359 32.6519 19.8382 32.6617 18.1618 31.4128C17.6903 31.0614 17.1835 30.6739 16.652 30.2539C15.4178 29.2765 14.0568 28.1201 12.723 26.8347Z" stroke="url(#paint3_linear_1125_14934)" stroke-width="0.4"/>
<path d="M9.90626 12.7217L9.90625 12.7216C9.28658 10.2101 9.85184 7.82106 10.9899 5.67804C12.0422 3.69673 13.5799 1.93439 15.105 0.497505C15.0998 0.574674 15.0944 0.659971 15.0893 0.753092C15.0616 1.25152 15.0384 1.97428 15.0557 2.87489C15.0902 4.67583 15.2866 7.18959 15.9343 10.0437C17.2168 15.6954 20.2708 22.6882 27.345 28.1153C25.6403 29.2757 23.3516 29.1931 21.7296 27.8883C21.1584 27.4277 20.532 26.9069 19.8761 26.3337L19.8758 26.3334C17.9562 24.6622 15.7808 22.5531 13.9257 20.2116C12.0692 17.8683 10.5427 15.3038 9.90626 12.7217Z" stroke="url(#paint4_linear_1125_14934)" stroke-width="0.4"/>
<path d="M12.9284 9.48545L12.9284 9.48538C12.1089 6.1626 13.3634 3.04883 15.2743 0.444372C15.3055 0.545059 15.343 0.664681 15.387 0.802042C15.5389 1.27662 15.7676 1.96304 16.075 2.81203C16.6897 4.50983 17.6197 6.85874 18.8812 9.46429C21.3688 14.6019 25.1549 20.7573 30.3706 24.8774C28.6655 26.0398 26.3751 25.9601 24.7523 24.6527L24.752 24.6524C23.9421 24.0024 23.0274 23.2312 22.0698 22.364L22.0697 22.364C18.3777 19.0238 14.1124 14.2924 12.9284 9.48545Z" stroke="url(#paint5_linear_1125_14934)" stroke-width="0.4"/>
<defs>
<linearGradient id="paint0_linear_1125_14934" x1="16.037" y1="0.00390625" x2="16.037" y2="32.5462" gradientUnits="userSpaceOnUse">
<stop stop-color="#00ECBC" stop-opacity="0"/>
<stop offset="1" stop-color="#00ECBC"/>
</linearGradient>
<linearGradient id="paint1_linear_1125_14934" x1="12.1374" y1="0" x2="12.1374" y2="29.1299" gradientUnits="userSpaceOnUse">
<stop stop-color="#00ECBC" stop-opacity="0"/>
<stop offset="1" stop-color="#00ECBC"/>
</linearGradient>
<linearGradient id="paint2_linear_1125_14934" x1="9.11488" y1="0.00976562" x2="9.11488" y2="25.8967" gradientUnits="userSpaceOnUse">
<stop stop-color="#00ECBC" stop-opacity="0"/>
<stop offset="1" stop-color="#00ECBC"/>
</linearGradient>
<linearGradient id="paint3_linear_1125_14934" x1="14.6654" y1="0.00390625" x2="14.6654" y2="32.5462" gradientUnits="userSpaceOnUse">
<stop stop-color="#00ECBC" stop-opacity="0"/>
<stop offset="1" stop-color="#00ECBC"/>
</linearGradient>
<linearGradient id="paint4_linear_1125_14934" x1="18.5658" y1="0" x2="18.5658" y2="29.1299" gradientUnits="userSpaceOnUse">
<stop stop-color="#00ECBC" stop-opacity="0"/>
<stop offset="1" stop-color="#00ECBC"/>
</linearGradient>
<linearGradient id="paint5_linear_1125_14934" x1="21.5882" y1="0.0078125" x2="21.5882" y2="25.8948" gradientUnits="userSpaceOnUse">
<stop stop-color="#00ECBC" stop-opacity="0"/>
<stop offset="1" stop-color="#00ECBC"/>
</linearGradient>
</defs>
</svg>
