<svg width="140" height="141" viewBox="0 0 140 141" fill="none" xmlns="http://www.w3.org/2000/svg">
<g clip-path="url(#clip0_1125_14983)">
<g filter="url(#filter0_f_1125_14983)">
<path fill-rule="evenodd" clip-rule="evenodd" d="M69.7956 123.026C70.3817 123.333 71.0369 123.489 71.6922 123.483C72.3475 123.478 72.9976 123.317 73.589 123.005L92.4715 112.898C97.8261 110.04 102.019 106.845 105.29 103.124C112.403 95.0175 116.287 84.6716 116.218 74.0033L115.994 38.8132C115.973 34.76 113.314 31.1434 109.382 29.8287L74.2551 18.0276C72.1399 17.3105 69.8222 17.3261 67.7443 18.064L32.7501 30.2859C28.8394 31.6526 26.2288 35.2952 26.2501 39.3536L26.4737 74.5177C26.543 85.2015 30.5605 95.5008 37.7906 103.524C41.0939 107.193 45.3242 110.342 50.7374 113.153L69.7956 123.026ZM64.7968 81.6674C65.5854 82.4261 66.6083 82.8002 67.6312 82.7898C68.6542 82.7846 69.6719 82.4002 70.4498 81.6311L91.0851 61.2612C92.6355 59.7282 92.6195 57.2651 91.053 55.753C89.4813 54.2408 86.9507 54.2512 85.4002 55.7841L67.5727 73.3791L60.2735 66.3536C58.7018 64.8414 56.1763 64.857 54.6205 66.39C53.0701 67.9229 53.086 70.386 54.6577 71.8982L64.7968 81.6674Z" fill="#5B1ED0" fill-opacity="0.01"/>
<path fill-rule="evenodd" clip-rule="evenodd" d="M69.7956 123.026C70.3817 123.333 71.0369 123.489 71.6922 123.483C72.3475 123.478 72.9976 123.317 73.589 123.005L92.4715 112.898C97.8261 110.04 102.019 106.845 105.29 103.124C112.403 95.0175 116.287 84.6716 116.218 74.0033L115.994 38.8132C115.973 34.76 113.314 31.1434 109.382 29.8287L74.2551 18.0276C72.1399 17.3105 69.8222 17.3261 67.7443 18.064L32.7501 30.2859C28.8394 31.6526 26.2288 35.2952 26.2501 39.3536L26.4737 74.5177C26.543 85.2015 30.5605 95.5008 37.7906 103.524C41.0939 107.193 45.3242 110.342 50.7374 113.153L69.7956 123.026ZM64.7968 81.6674C65.5854 82.4261 66.6083 82.8002 67.6312 82.7898C68.6542 82.7846 69.6719 82.4002 70.4498 81.6311L91.0851 61.2612C92.6355 59.7282 92.6195 57.2651 91.053 55.753C89.4813 54.2408 86.9507 54.2512 85.4002 55.7841L67.5727 73.3791L60.2735 66.3536C58.7018 64.8414 56.1763 64.857 54.6205 66.39C53.0701 67.9229 53.086 70.386 54.6577 71.8982L64.7968 81.6674Z" stroke="#00ECBC" stroke-width="2.73108"/>
</g>
<g filter="url(#filter1_f_1125_14983)">
<path fill-rule="evenodd" clip-rule="evenodd" d="M69.7956 123.026C70.3817 123.333 71.0369 123.489 71.6922 123.483C72.3475 123.478 72.9976 123.317 73.589 123.005L92.4715 112.898C97.8261 110.04 102.019 106.845 105.29 103.124C112.403 95.0175 116.287 84.6716 116.218 74.0033L115.994 38.8132C115.973 34.76 113.314 31.1434 109.382 29.8287L74.2551 18.0276C72.1399 17.3105 69.8222 17.3261 67.7443 18.064L32.7501 30.2859C28.8394 31.6526 26.2288 35.2952 26.2501 39.3536L26.4737 74.5177C26.543 85.2015 30.5605 95.5008 37.7906 103.524C41.0939 107.193 45.3242 110.342 50.7374 113.153L69.7956 123.026ZM64.7968 81.6674C65.5854 82.4261 66.6083 82.8002 67.6312 82.7898C68.6542 82.7846 69.6719 82.4002 70.4498 81.6311L91.0851 61.2612C92.6355 59.7282 92.6195 57.2651 91.053 55.753C89.4813 54.2408 86.9507 54.2512 85.4002 55.7841L67.5727 73.3791L60.2735 66.3536C58.7018 64.8414 56.1763 64.857 54.6205 66.39C53.0701 67.9229 53.086 70.386 54.6577 71.8982L64.7968 81.6674Z" fill="#5B1ED0" fill-opacity="0.01"/>
<path fill-rule="evenodd" clip-rule="evenodd" d="M69.7956 123.026C70.3817 123.333 71.0369 123.489 71.6922 123.483C72.3475 123.478 72.9976 123.317 73.589 123.005L92.4715 112.898C97.8261 110.04 102.019 106.845 105.29 103.124C112.403 95.0175 116.287 84.6716 116.218 74.0033L115.994 38.8132C115.973 34.76 113.314 31.1434 109.382 29.8287L74.2551 18.0276C72.1399 17.3105 69.8222 17.3261 67.7443 18.064L32.7501 30.2859C28.8394 31.6526 26.2288 35.2952 26.2501 39.3536L26.4737 74.5177C26.543 85.2015 30.5605 95.5008 37.7906 103.524C41.0939 107.193 45.3242 110.342 50.7374 113.153L69.7956 123.026ZM64.7968 81.6674C65.5854 82.4261 66.6083 82.8002 67.6312 82.7898C68.6542 82.7846 69.6719 82.4002 70.4498 81.6311L91.0851 61.2612C92.6355 59.7282 92.6195 57.2651 91.053 55.753C89.4813 54.2408 86.9507 54.2512 85.4002 55.7841L67.5727 73.3791L60.2735 66.3536C58.7018 64.8414 56.1763 64.857 54.6205 66.39C53.0701 67.9229 53.086 70.386 54.6577 71.8982L64.7968 81.6674Z" stroke="#00ECBC" stroke-width="1.36554"/>
</g>
<g filter="url(#filter2_b_1125_14983)">
<path fill-rule="evenodd" clip-rule="evenodd" d="M69.7792 122.878C70.3651 123.184 71.0202 123.34 71.6753 123.335C72.3304 123.33 72.98 123.169 73.5712 122.857L92.4466 112.765C97.7992 109.911 101.991 106.719 105.261 103.004C112.371 94.9089 116.254 84.5774 116.184 73.9241L115.961 38.7834C115.939 34.7359 113.282 31.1242 109.351 29.8114L74.237 18.0269C72.1226 17.3108 69.8059 17.3263 67.7288 18.0632L32.7477 30.268C28.8384 31.6327 26.2288 35.2703 26.2501 39.323L26.4737 74.4378C26.543 85.1066 30.5588 95.3915 37.7861 103.403C41.0882 107.067 45.3169 110.212 50.7281 113.019L69.7792 122.878ZM64.7824 81.5775C65.5706 82.3351 66.5932 82.7087 67.6157 82.6983C68.6383 82.6931 69.6557 82.3092 70.4333 81.5412L91.0607 61.1998C92.6105 59.669 92.5947 57.2094 91.0288 55.6994C89.4577 54.1894 86.9278 54.1997 85.378 55.7305L67.5572 73.3009L60.2607 66.2851C58.6895 64.7751 56.165 64.7907 54.6098 66.3215C53.06 67.8523 53.0759 70.3119 54.647 71.822L64.7824 81.5775Z" fill="#5B1ED0" fill-opacity="0.01"/>
<path fill-rule="evenodd" clip-rule="evenodd" d="M69.7792 122.878C70.3651 123.184 71.0202 123.34 71.6753 123.335C72.3304 123.33 72.98 123.169 73.5712 122.857L92.4466 112.765C97.7992 109.911 101.991 106.719 105.261 103.004C112.371 94.9089 116.254 84.5774 116.184 73.9241L115.961 38.7834C115.939 34.7359 113.282 31.1242 109.351 29.8114L74.237 18.0269C72.1226 17.3108 69.8059 17.3263 67.7288 18.0632L32.7477 30.268C28.8384 31.6327 26.2288 35.2703 26.2501 39.323L26.4737 74.4378C26.543 85.1066 30.5588 95.3915 37.7861 103.403C41.0882 107.067 45.3169 110.212 50.7281 113.019L69.7792 122.878ZM64.7824 81.5775C65.5706 82.3351 66.5932 82.7087 67.6157 82.6983C68.6383 82.6931 69.6557 82.3092 70.4333 81.5412L91.0607 61.1998C92.6105 59.669 92.5947 57.2094 91.0288 55.6994C89.4577 54.1894 86.9278 54.1997 85.378 55.7305L67.5572 73.3009L60.2607 66.2851C58.6895 64.7751 56.165 64.7907 54.6098 66.3215C53.06 67.8523 53.0759 70.3119 54.647 71.822L64.7824 81.5775Z" stroke="#00ECBC"/>
</g>
</g>
<g filter="url(#filter3_f_1125_14983)">
<line x1="21" y1="136.575" x2="121" y2="136.575" stroke="url(#paint0_linear_1125_14983)" stroke-width="2.85"/>
</g>
<defs>
<filter id="filter0_f_1125_14983" x="24.2018" y="15.452" width="94.0657" height="110.08" filterUnits="userSpaceOnUse" color-interpolation-filters="sRGB">
<feFlood flood-opacity="0" result="BackgroundImageFix"/>
<feBlend mode="normal" in="SourceGraphic" in2="BackgroundImageFix" result="shape"/>
<feGaussianBlur stdDeviation="0.341384" result="effect1_foregroundBlur_1125_14983"/>
</filter>
<filter id="filter1_f_1125_14983" x="25.112" y="16.3612" width="92.2451" height="108.26" filterUnits="userSpaceOnUse" color-interpolation-filters="sRGB">
<feFlood flood-opacity="0" result="BackgroundImageFix"/>
<feBlend mode="normal" in="SourceGraphic" in2="BackgroundImageFix" result="shape"/>
<feGaussianBlur stdDeviation="0.22759" result="effect1_foregroundBlur_1125_14983"/>
</filter>
<filter id="filter2_b_1125_14983" x="10.25" y="1.5" width="121.935" height="137.836" filterUnits="userSpaceOnUse" color-interpolation-filters="sRGB">
<feFlood flood-opacity="0" result="BackgroundImageFix"/>
<feGaussianBlur in="BackgroundImageFix" stdDeviation="8"/>
<feComposite in2="SourceAlpha" operator="in" result="effect1_backgroundBlur_1125_14983"/>
<feBlend mode="normal" in="SourceGraphic" in2="effect1_backgroundBlur_1125_14983" result="shape"/>
</filter>
<filter id="filter3_f_1125_14983" x="18" y="132.15" width="106" height="8.84961" filterUnits="userSpaceOnUse" color-interpolation-filters="sRGB">
<feFlood flood-opacity="0" result="BackgroundImageFix"/>
<feBlend mode="normal" in="SourceGraphic" in2="BackgroundImageFix" result="shape"/>
<feGaussianBlur stdDeviation="1.5" result="effect1_foregroundBlur_1125_14983"/>
</filter>
<linearGradient id="paint0_linear_1125_14983" x1="21" y1="138.5" x2="121" y2="138.5" gradientUnits="userSpaceOnUse">
<stop stop-color="#161618"/>
<stop offset="0.5" stop-color="#00ECBC"/>
<stop offset="1" stop-color="#161618"/>
</linearGradient>
<clipPath id="clip0_1125_14983">
<rect width="140" height="140" fill="white"/>
</clipPath>
</defs>
</svg>
