<svg width="39" height="42" viewBox="0 0 39 42" fill="none" xmlns="http://www.w3.org/2000/svg">
<path d="M19.4981 0.00585938C19.4981 0.00585938 19.7706 0.178211 20.2347 0.504277C23.3003 2.65574 34.7574 11.4735 31.9282 21.2905C31.1212 24.0964 29.4868 26.8423 27.4873 29.3845C26.1184 31.1249 24.5812 32.768 23.0144 34.2697C21.313 35.9087 19.5785 37.383 18.0052 38.6291C17.328 39.1647 16.6823 39.6585 16.0814 40.1057C13.775 41.8239 10.5808 41.743 8.36816 39.91C8.36816 39.91 32.0301 21.1053 19.4981 0.00585938Z" fill="url(#paint0_linear_612_18188)"/>
<path d="M3.83887 35.7177C6.12017 37.4656 9.31853 37.4231 11.5573 35.6222C12.2852 35.0353 13.0834 34.3715 13.9196 33.6408C18.81 29.3821 25.021 22.8794 26.6629 16.2201C28.2752 9.68534 23.7068 3.82255 19.504 1.15762e-08C19.504 1.15762e-08 22.0788 21.9641 3.83887 35.7177Z" fill="url(#paint1_linear_612_18188)"/>
<path d="M0 31.6093C2.2813 33.3567 5.47966 33.3177 7.71846 31.5138C8.75081 30.6847 9.9165 29.7024 11.1369 28.5973C15.8294 24.352 21.3009 18.2977 22.8241 12.1111C23.9339 7.6114 22.1149 3.42727 19.5 0.0117188C19.5 0.0117188 13.4339 21.2148 0 31.6093Z" fill="url(#paint2_linear_612_18188)"/>
<path d="M30.6304 39.91C28.4178 41.743 25.2235 41.8239 22.9172 40.1057C22.3163 39.6579 21.6705 39.1642 20.9934 38.6291C19.4207 37.3836 17.6855 35.9093 15.9842 34.2697C14.4173 32.768 12.8801 31.1249 11.5112 29.3845C9.51117 26.8417 7.87792 24.0964 7.07033 21.2905C4.24112 11.4741 15.6983 2.65632 18.7639 0.504277C19.228 0.178211 19.5005 0.00585938 19.5005 0.00585938C6.96843 21.1053 30.6304 39.91 30.6304 39.91Z" fill="url(#paint3_linear_612_18188)"/>
<path d="M19.4955 0C15.2927 3.82313 10.7243 9.68534 12.3366 16.2201C13.978 22.8794 20.189 29.3827 25.08 33.6408C25.9161 34.3715 26.7144 35.0353 27.4422 35.6222C29.681 37.4231 32.8788 37.4656 35.1607 35.7177C16.9202 21.9647 19.4955 0 19.4955 0Z" fill="url(#paint4_linear_612_18188)"/>
<path d="M19.5001 0.00976562C16.8851 3.42531 15.0655 7.60945 16.1753 12.1092C17.6991 18.2957 23.1706 24.3501 27.8631 28.5953C29.0835 29.7005 30.2492 30.6833 31.2815 31.5119C33.5203 33.3157 36.7181 33.3547 39 31.6074C25.5655 21.2134 19.5001 0.00976562 19.5001 0.00976562Z" fill="url(#paint5_linear_612_18188)"/>
<defs>
<linearGradient id="paint0_linear_612_18188" x1="32.2706" y1="21.3027" x2="9.13151" y2="20.4077" gradientUnits="userSpaceOnUse">
<stop offset="0.00537635" stop-color="#007ADF"/>
<stop offset="1" stop-color="#00ECBC"/>
</linearGradient>
<linearGradient id="paint1_linear_612_18188" x1="26.9943" y1="18.5008" x2="3.83887" y2="18.5008" gradientUnits="userSpaceOnUse">
<stop offset="0.00537635" stop-color="#007ADF"/>
<stop offset="1" stop-color="#00ECBC"/>
</linearGradient>
<linearGradient id="paint2_linear_612_18188" x1="23.1554" y1="16.4525" x2="0" y2="16.4525" gradientUnits="userSpaceOnUse">
<stop offset="0.00537635" stop-color="#007ADF"/>
<stop offset="1" stop-color="#00ECBC"/>
</linearGradient>
<linearGradient id="paint3_linear_612_18188" x1="6.74077" y1="21.2939" x2="29.8799" y2="20.399" gradientUnits="userSpaceOnUse">
<stop offset="0.00537635" stop-color="#007ADF"/>
<stop offset="1" stop-color="#00ECBC"/>
</linearGradient>
<linearGradient id="paint4_linear_612_18188" x1="12.0047" y1="18.5014" x2="35.1607" y2="18.5014" gradientUnits="userSpaceOnUse">
<stop offset="0.00537635" stop-color="#007ADF"/>
<stop offset="1" stop-color="#00ECBC"/>
</linearGradient>
<linearGradient id="paint5_linear_612_18188" x1="15.844" y1="16.4511" x2="38.9994" y2="16.4511" gradientUnits="userSpaceOnUse">
<stop offset="0.00537635" stop-color="#007ADF"/>
<stop offset="1" stop-color="#00ECBC"/>
</linearGradient>
</defs>
</svg>
