<svg width="24" height="25" viewBox="0 0 24 25" fill="none" xmlns="http://www.w3.org/2000/svg">
<path d="M10.08 11.36C10.13 11.03 10.24 10.74 10.38 10.49C10.52 10.24 10.72 10.03 10.97 9.87C11.21 9.72 11.51 9.65 11.88 9.64C12.11 9.65 12.32 9.69 12.51 9.77C12.71 9.86 12.89 9.98 13.03 10.13C13.17 10.28 13.28 10.46 13.37 10.66C13.46 10.86 13.5 11.08 13.51 11.3H15.3C15.28 10.83 15.19 10.4 15.02 10.01C14.85 9.62 14.62 9.28 14.32 9C14.02 8.72 13.66 8.5 13.24 8.34C12.82 8.18 12.36 8.11 11.85 8.11C11.2 8.11 10.63 8.22 10.15 8.45C9.67 8.68 9.27 8.98 8.95 9.37C8.63 9.76 8.39 10.21 8.24 10.73C8.09 11.25 8 11.79 8 12.37V12.64C8 13.22 8.08 13.76 8.23 14.28C8.38 14.8 8.62 15.25 8.94 15.63C9.26 16.01 9.66 16.32 10.14 16.54C10.62 16.76 11.19 16.88 11.84 16.88C12.31 16.88 12.75 16.8 13.16 16.65C13.57 16.5 13.93 16.29 14.24 16.02C14.55 15.75 14.8 15.44 14.98 15.08C15.16 14.72 15.27 14.34 15.28 13.93H13.49C13.48 14.14 13.43 14.33 13.34 14.51C13.25 14.69 13.13 14.84 12.98 14.97C12.83 15.1 12.66 15.2 12.46 15.27C12.27 15.34 12.07 15.36 11.86 15.37C11.5 15.36 11.2 15.29 10.97 15.14C10.72 14.98 10.52 14.77 10.38 14.52C10.24 14.27 10.13 13.97 10.08 13.64C10.03 13.31 10 12.97 10 12.64V12.37C10 12.02 10.03 11.69 10.08 11.36ZM12 2.5C6.48 2.5 2 6.98 2 12.5C2 18.02 6.48 22.5 12 22.5C17.52 22.5 22 18.02 22 12.5C22 6.98 17.52 2.5 12 2.5ZM12 20.5C7.59 20.5 4 16.91 4 12.5C4 8.09 7.59 4.5 12 4.5C16.41 4.5 20 8.09 20 12.5C20 16.91 16.41 20.5 12 20.5Z" fill="white"/>
</svg>
