<svg width="32" height="32" viewBox="0 0 32 32" fill="none" xmlns="http://www.w3.org/2000/svg">
<path d="M26.5377 6.82828C24.7009 5.976 22.7123 5.35741 20.6408 5C20.6044 5.00052 20.5697 5.01534 20.5442 5.04124C20.2956 5.49487 20.0056 6.08597 19.8122 6.5396C17.6151 6.20989 15.3807 6.20989 13.1835 6.5396C12.9901 6.07222 12.7001 5.49487 12.4378 5.04124C12.4239 5.01375 12.3825 5 12.3411 5C10.2696 5.35741 8.29478 5.976 6.44425 6.82828C6.43044 6.82828 6.41663 6.84202 6.40282 6.85577C2.64653 12.4506 1.61079 17.8942 2.12175 23.2828C2.12175 23.3103 2.13556 23.3378 2.16318 23.3515C4.64897 25.166 7.03808 26.2657 9.39957 26.9943C9.441 27.0081 9.48243 26.9943 9.49624 26.9668C10.0486 26.2108 10.5458 25.4135 10.9739 24.5749C11.0015 24.5199 10.9739 24.465 10.9187 24.4512C10.1315 24.1488 9.38576 23.7914 8.65384 23.379C8.5986 23.3515 8.5986 23.269 8.64003 23.2278C8.79194 23.1178 8.94385 22.9941 9.09575 22.8841C9.12337 22.8566 9.1648 22.8566 9.19242 22.8704C13.943 25.0286 19.0665 25.0286 23.7619 22.8704C23.7895 22.8566 23.8309 22.8566 23.8585 22.8841C24.0105 23.0078 24.1624 23.1178 24.3143 23.2415C24.3695 23.2828 24.3695 23.3652 24.3005 23.3927C23.5823 23.8189 22.8228 24.1625 22.0356 24.465C21.9804 24.4787 21.9666 24.5474 21.9804 24.5887C22.4223 25.4272 22.9195 26.2245 23.4581 26.9806C23.4995 26.9943 23.5409 27.0081 23.5823 26.9943C25.9576 26.2657 28.3468 25.166 30.8325 23.3515C30.8602 23.3378 30.874 23.3103 30.874 23.2828C31.4816 17.0556 29.8658 11.6533 26.5929 6.85577C26.5791 6.84202 26.5653 6.82828 26.5377 6.82828ZM11.692 19.9974C10.2696 19.9974 9.08194 18.6915 9.08194 17.0831C9.08194 15.4748 10.242 14.1689 11.692 14.1689C13.1559 14.1689 14.3159 15.4885 14.3021 17.0831C14.3021 18.6915 13.1421 19.9974 11.692 19.9974ZM21.3175 19.9974C19.8951 19.9974 18.7074 18.6915 18.7074 17.0831C18.7074 15.4748 19.8675 14.1689 21.3175 14.1689C22.7814 14.1689 23.9414 15.4885 23.9276 17.0831C23.9276 18.6915 22.7814 19.9974 21.3175 19.9974Z" fill="white"/>
</svg>
