<svg width="368" height="560" viewBox="0 0 368 560" fill="none" xmlns="http://www.w3.org/2000/svg">
<g filter="url(#filter0_i_360_3006)">
<g clip-path="url(#clip0_360_3006)">
<rect width="368" height="560" rx="32" fill="#6B7280" fill-opacity="0.1"/>
<g opacity="0.08" filter="url(#filter1_f_360_3006)">
<path d="M440 280C440 421.385 325.385 536 184 536C42.6151 536 -72 421.385 -72 280C-72 138.615 42.6151 24 184 24C325.385 24 440 138.615 440 280Z" fill="url(#paint0_radial_360_3006)"/>
</g>
<g clip-path="url(#clip1_360_3006)">
<g clip-path="url(#clip2_360_3006)">
<mask id="mask0_360_3006" style="mask-type:alpha" maskUnits="userSpaceOnUse" x="-232" y="254" width="557" height="557">
<path d="M279.001 503.76C278.195 523.765 278.195 549.386 278.396 569.994C278.497 580.301 278.648 589.358 278.774 595.839C278.837 599.079 278.893 601.676 278.934 603.462C278.955 604.356 278.971 605.046 278.983 605.514L278.996 606.045L278.999 606.181L279 606.201C279 606.205 279 606.209 279 606.214C279 642.067 278.999 668.898 277.259 690.189C275.521 711.472 272.05 727.132 265.158 740.657C252.982 764.554 233.553 783.982 209.657 796.158C196.131 803.05 180.471 806.521 159.189 808.26C137.895 810 111.06 810 75.2 810H-27.2C-63.0599 810 -89.8946 810 -111.189 808.26C-132.471 806.521 -148.131 803.05 -161.657 796.158C-185.553 783.982 -204.982 764.554 -217.158 740.657C-224.05 727.132 -227.521 711.472 -229.259 690.189C-230.999 668.895 -231 642.06 -231 606.201V503.801C-231 467.941 -230.999 441.106 -229.259 419.812C-227.521 398.529 -224.05 382.87 -217.158 369.344C-204.982 345.447 -185.553 326.019 -161.657 313.843C-148.131 306.951 -132.471 303.48 -111.189 301.741C-89.8972 300.002 -63.0663 300.001 -27.2129 300.001L-27.18 300.001L-27.0447 300.005L-26.5134 300.018C-26.0458 300.029 -25.355 300.046 -24.4617 300.066C-22.6752 300.107 -20.0788 300.164 -16.8384 300.227C-10.3576 300.353 -1.30031 300.503 9.00627 300.604C29.6147 300.805 55.2354 300.806 75.2403 300C113.515 298.458 153.529 286.087 190.061 274.793C198.181 272.282 206.129 269.825 213.848 267.551C235.117 261.287 254.626 256.421 271.286 255.596C287.939 254.771 301.576 257.99 311.293 267.708C321.01 277.425 324.229 291.062 323.404 307.714C322.579 324.375 317.714 343.883 311.449 365.153C309.176 372.871 306.719 380.82 304.208 388.94C292.914 425.472 280.543 465.486 279.001 503.76Z" stroke="#FCE803" stroke-width="2" stroke-linecap="round" stroke-linejoin="round"/>
<mask id="mask1_360_3006" style="mask-type:alpha" maskUnits="userSpaceOnUse" x="-144" y="163" width="560" height="560">
<path d="M135.901 163L137.366 414.958L165.159 164.533L140.28 415.265L194.096 169.117L143.146 415.874L222.396 176.7L145.932 416.779L249.748 187.2L148.609 417.971L275.852 200.501L151.146 419.436L300.423 216.458L153.516 421.158L323.192 234.897L155.694 423.118L343.909 255.614L157.654 425.296L362.347 278.384L159.376 427.666L378.303 302.956L160.841 430.203L391.604 329.061L162.033 432.88L402.104 356.414L162.938 435.667L409.686 384.714L163.547 438.532L414.27 413.652L163.853 441.446L415.803 442.911L163.853 444.376L414.27 472.17L163.547 447.29L409.686 501.108L162.938 450.156L402.104 529.408L162.033 452.942L391.604 556.761L160.841 455.619L378.303 582.867L159.376 458.156L362.347 607.439L157.654 460.527L343.909 630.208L155.694 462.704L323.192 650.926L153.516 464.664L300.423 669.364L151.146 466.387L275.852 685.321L148.609 467.851L249.748 698.623L145.932 469.043L222.396 709.123L143.146 469.949L194.096 716.706L140.28 470.558L165.159 721.289L137.366 470.864L135.901 722.822L134.437 470.864L106.644 721.289L131.523 470.558L77.7067 716.706L128.657 469.949L49.4072 709.123L125.871 469.043L22.0553 698.623L123.194 467.851L-4.04925 685.321L120.657 466.387L-28.6205 669.364L118.287 464.664L-51.3892 650.926L116.109 462.704L-72.1059 630.208L114.149 460.527L-90.5436 607.439L112.427 458.156L-106.5 582.867L110.962 455.619L-119.801 556.761L109.77 452.942L-130.301 529.408L108.865 450.156L-137.883 501.108L108.256 447.29L-142.467 472.17L107.95 444.376L-144 442.911L107.95 441.446L-142.467 413.652L108.256 438.532L-137.883 384.714L108.865 435.667L-130.301 356.414L109.77 432.88L-119.801 329.061L110.962 430.203L-106.5 302.956L112.427 427.666L-90.5436 278.384L114.149 425.296L-72.1059 255.614L116.109 423.118L-51.3892 234.897L118.287 421.158L-28.6205 216.458L120.657 419.436L-4.04925 200.501L123.194 417.971L22.0553 187.2L125.871 416.779L49.4072 176.7L128.657 415.874L77.7067 169.117L131.523 415.265L106.644 164.533L134.437 414.958L135.901 163Z" fill="#FCE803"/>
<path d="M87.6646 167.377L132.858 415.253L116.744 163.806L135.781 415.049L146.037 163.295L138.709 415.151L175.224 165.849L141.61 415.559L203.983 171.439L144.453 416.268L232.001 180.005L147.206 417.27L258.97 191.453L149.839 418.554L284.594 205.658L152.324 420.107L308.594 222.463L154.632 421.911L330.705 241.685L156.74 423.946L350.686 263.112L158.623 426.19L368.318 286.511L160.261 428.619L383.407 311.625L161.637 431.206L395.789 338.179L162.734 433.923L405.328 365.882L163.542 436.739L411.918 394.43L164.051 439.625L415.489 423.51L164.255 442.547L416 452.805L164.153 445.475L413.447 481.992L163.745 448.377L407.856 510.752L163.036 451.22L399.29 538.771L162.034 453.973L387.843 565.741L160.75 456.606L373.639 591.366L159.197 459.091L356.834 615.366L157.393 461.4L337.613 637.478L155.358 463.507L316.186 657.46L153.114 465.391L292.788 675.093L150.685 467.029L267.675 690.183L148.098 468.404L241.122 702.565L145.382 469.502L213.42 712.104L142.565 470.31L184.873 718.694L139.68 470.818L155.794 722.265L136.758 471.023L126.501 722.776L133.83 470.92L97.3143 720.223L130.928 470.513L68.5547 714.632L128.085 469.804L40.5371 706.066L125.332 468.802L13.5683 694.618L122.699 467.517L-12.0562 680.414L120.215 465.965L-36.0555 663.609L117.906 464.161L-58.1669 644.387L115.798 462.126L-78.148 622.959L113.915 459.881L-95.7798 599.56L112.277 457.452L-110.869 574.446L110.901 454.865L-123.251 547.892L109.804 452.149L-132.79 520.19L108.996 449.332L-139.38 491.642L108.488 446.447L-142.951 462.561L108.283 443.524L-143.462 433.267L108.385 440.596L-140.908 404.08L108.793 437.695L-135.318 375.319L109.502 434.852L-126.752 347.301L110.504 432.099L-115.305 320.331L111.788 429.465L-101.101 294.705L113.341 426.981L-84.2964 270.705L115.145 424.672L-65.0753 248.593L117.18 422.564L-43.6482 228.611L119.424 420.681L-20.2499 210.979L121.853 419.043L4.86323 195.889L124.44 417.667L31.4161 183.507L127.156 416.57L59.1177 173.968L129.973 415.762L87.6646 167.377Z" fill="#FCE803"/>
<path d="M40.0492 180.229L127.598 416.491L68.0668 171.663L130.44 415.783L96.8264 166.072L133.342 415.375L126.013 163.519L136.27 415.272L155.306 164.03L139.192 415.477L184.386 167.601L142.078 415.986L212.932 174.191L144.894 416.793L240.634 183.73L147.61 417.891L267.187 196.112L150.197 419.266L292.3 211.202L152.626 420.905L315.698 228.835L154.87 422.788L337.125 248.817L156.906 424.896L356.347 270.929L158.709 427.204L373.151 294.929L160.262 429.689L387.355 320.554L161.546 432.322L398.803 347.524L162.548 435.076L407.368 375.543L163.257 437.918L412.959 404.303L163.665 440.82L415.512 433.491L163.767 443.748L415.001 462.785L163.563 446.671L411.43 491.865L163.054 449.556L404.84 520.413L162.246 452.372L395.301 548.116L161.149 455.089L382.919 574.67L159.773 457.676L367.83 599.784L158.135 460.105L350.198 623.183L156.252 462.349L330.217 644.611L154.144 464.385L308.106 663.832L151.836 466.188L284.106 680.637L149.351 467.741L258.482 694.842L146.718 469.025L231.513 706.29L143.965 470.027L203.495 714.856L141.122 470.736L174.736 720.446L138.221 471.144L145.55 723L135.293 471.246L116.256 722.489L132.37 471.042L87.1767 718.918L129.485 470.533L58.6298 712.327L126.668 469.725L30.9282 702.788L123.952 468.628L4.37531 690.406L121.365 467.252L-20.7378 675.316L118.936 465.614L-44.1361 657.684L116.692 463.731L-65.5632 637.702L114.657 461.623L-84.7843 615.59L112.853 459.314L-101.589 591.59L111.3 456.83L-115.793 565.964L110.016 454.196L-127.24 538.995L109.014 451.443L-135.806 510.976L108.305 448.6L-141.396 482.215L107.897 445.699L-143.95 453.028L107.795 442.771L-143.439 423.734L108 439.848L-139.868 394.653L108.508 436.963L-133.277 366.105L109.316 434.146L-123.739 338.403L110.413 431.43L-111.357 311.849L111.789 428.843L-96.2677 286.735L113.427 426.414L-78.6359 263.336L115.31 424.169L-58.6548 241.908L117.418 422.134L-36.5435 222.686L119.727 420.33L-12.5441 205.881L122.211 418.778L13.0804 191.677L124.845 417.493L40.0492 180.229Z" fill="#FCE803"/>
</mask>
<g mask="url(#mask1_360_3006)">
<path d="M280 606.201C280 606.201 278.39 543.758 280 503.801C283.756 410.559 352 307.001 312 267.001C272 227.001 168.441 295.245 75.2 299.001C35.2427 300.61 -27.2 299.001 -27.2 299.001C-98.8867 299.001 -134.73 299.001 -162.111 312.952C-186.196 325.224 -205.777 344.805 -218.049 368.89C-232 396.271 -232 432.114 -232 503.801V606.201C-232 677.887 -232 713.731 -218.049 741.111C-205.777 765.196 -186.196 784.777 -162.111 797.049C-134.73 811 -98.8867 811 -27.2 811H75.2C146.887 811 182.73 811 210.111 797.049C234.196 784.777 253.777 765.196 266.049 741.111C280 713.731 280 677.887 280 606.201Z" fill="#FCE803"/>
</g>
</mask>
<g mask="url(#mask0_360_3006)">
<g filter="url(#filter2_d_360_3006)">
<path d="M305.149 389.285C293.857 425.814 281.536 465.67 280 503.801V488.364C280 460.12 280 437.462 278.503 419.139C276.965 400.313 273.728 383.96 266.049 368.89C253.777 344.805 234.196 325.224 210.111 312.952C195.04 305.273 178.688 302.035 159.861 300.497C141.539 299 118.88 299 90.6361 299.001H75.2021C113.332 297.464 153.187 285.144 189.715 273.852C242.512 257.531 288.358 243.358 312 267.001C335.642 290.643 321.47 336.489 305.149 389.285Z" fill="#00ECBC"/>
</g>
</g>
<g filter="url(#filter3_iii_360_3006)">
<rect x="-208" y="323" width="464" height="464" rx="104" stroke="white" stroke-opacity="0.02" stroke-width="64"/>
</g>
<g filter="url(#filter4_bii_360_3006)">
<rect x="-208" y="323" width="464" height="464" rx="104" stroke="white" stroke-opacity="0.08" stroke-width="48"/>
</g>
</g>
</g>
</g>
<rect x="0.5" y="0.5" width="367" height="559" rx="31.5" stroke="#6B7280"/>
</g>
<defs>
<filter id="filter0_i_360_3006" x="0" y="0" width="368" height="560" filterUnits="userSpaceOnUse" color-interpolation-filters="sRGB">
<feFlood flood-opacity="0" result="BackgroundImageFix"/>
<feBlend mode="normal" in="SourceGraphic" in2="BackgroundImageFix" result="shape"/>
<feColorMatrix in="SourceAlpha" type="matrix" values="0 0 0 0 0 0 0 0 0 0 0 0 0 0 0 0 0 0 127 0" result="hardAlpha"/>
<feOffset dy="1"/>
<feComposite in2="hardAlpha" operator="arithmetic" k2="-1" k3="1"/>
<feColorMatrix type="matrix" values="0 0 0 0 1 0 0 0 0 1 0 0 0 0 1 0 0 0 0.08 0"/>
<feBlend mode="normal" in2="shape" result="effect1_innerShadow_360_3006"/>
</filter>
<filter id="filter1_f_360_3006" x="-200" y="-104" width="768" height="768" filterUnits="userSpaceOnUse" color-interpolation-filters="sRGB">
<feFlood flood-opacity="0" result="BackgroundImageFix"/>
<feBlend mode="normal" in="SourceGraphic" in2="BackgroundImageFix" result="shape"/>
<feGaussianBlur stdDeviation="64" result="effect1_foregroundBlur_360_3006"/>
</filter>
<filter id="filter2_d_360_3006" x="59.2021" y="238.473" width="281.326" height="281.328" filterUnits="userSpaceOnUse" color-interpolation-filters="sRGB">
<feFlood flood-opacity="0" result="BackgroundImageFix"/>
<feColorMatrix in="SourceAlpha" type="matrix" values="0 0 0 0 0 0 0 0 0 0 0 0 0 0 0 0 0 0 127 0" result="hardAlpha"/>
<feOffset/>
<feGaussianBlur stdDeviation="8"/>
<feColorMatrix type="matrix" values="0 0 0 0 0.960784 0 0 0 0 0.898039 0 0 0 0 0.239216 0 0 0 0.24 0"/>
<feBlend mode="normal" in2="BackgroundImageFix" result="effect1_dropShadow_360_3006"/>
<feBlend mode="normal" in="SourceGraphic" in2="effect1_dropShadow_360_3006" result="shape"/>
</filter>
<filter id="filter3_iii_360_3006" x="-240" y="291" width="528" height="528" filterUnits="userSpaceOnUse" color-interpolation-filters="sRGB">
<feFlood flood-opacity="0" result="BackgroundImageFix"/>
<feBlend mode="normal" in="SourceGraphic" in2="BackgroundImageFix" result="shape"/>
<feColorMatrix in="SourceAlpha" type="matrix" values="0 0 0 0 0 0 0 0 0 0 0 0 0 0 0 0 0 0 127 0" result="hardAlpha"/>
<feOffset dx="-1" dy="1"/>
<feComposite in2="hardAlpha" operator="arithmetic" k2="-1" k3="1"/>
<feColorMatrix type="matrix" values="0 0 0 0 1 0 0 0 0 1 0 0 0 0 1 0 0 0 0.08 0"/>
<feBlend mode="normal" in2="shape" result="effect1_innerShadow_360_3006"/>
<feColorMatrix in="SourceAlpha" type="matrix" values="0 0 0 0 0 0 0 0 0 0 0 0 0 0 0 0 0 0 127 0" result="hardAlpha"/>
<feOffset dx="1"/>
<feComposite in2="hardAlpha" operator="arithmetic" k2="-1" k3="1"/>
<feColorMatrix type="matrix" values="0 0 0 0 1 0 0 0 0 1 0 0 0 0 1 0 0 0 0.08 0"/>
<feBlend mode="normal" in2="effect1_innerShadow_360_3006" result="effect2_innerShadow_360_3006"/>
<feColorMatrix in="SourceAlpha" type="matrix" values="0 0 0 0 0 0 0 0 0 0 0 0 0 0 0 0 0 0 127 0" result="hardAlpha"/>
<feOffset dy="-1"/>
<feComposite in2="hardAlpha" operator="arithmetic" k2="-1" k3="1"/>
<feColorMatrix type="matrix" values="0 0 0 0 1 0 0 0 0 1 0 0 0 0 1 0 0 0 0.04 0"/>
<feBlend mode="normal" in2="effect2_innerShadow_360_3006" result="effect3_innerShadow_360_3006"/>
</filter>
<filter id="filter4_bii_360_3006" x="-360" y="171" width="768" height="768" filterUnits="userSpaceOnUse" color-interpolation-filters="sRGB">
<feFlood flood-opacity="0" result="BackgroundImageFix"/>
<feGaussianBlur in="BackgroundImageFix" stdDeviation="64"/>
<feComposite in2="SourceAlpha" operator="in" result="effect1_backgroundBlur_360_3006"/>
<feBlend mode="normal" in="SourceGraphic" in2="effect1_backgroundBlur_360_3006" result="shape"/>
<feColorMatrix in="SourceAlpha" type="matrix" values="0 0 0 0 0 0 0 0 0 0 0 0 0 0 0 0 0 0 127 0" result="hardAlpha"/>
<feOffset dx="-1" dy="2"/>
<feComposite in2="hardAlpha" operator="arithmetic" k2="-1" k3="1"/>
<feColorMatrix type="matrix" values="0 0 0 0 1 0 0 0 0 1 0 0 0 0 1 0 0 0 0.08 0"/>
<feBlend mode="normal" in2="shape" result="effect2_innerShadow_360_3006"/>
<feColorMatrix in="SourceAlpha" type="matrix" values="0 0 0 0 0 0 0 0 0 0 0 0 0 0 0 0 0 0 127 0" result="hardAlpha"/>
<feOffset dx="1"/>
<feComposite in2="hardAlpha" operator="arithmetic" k2="-1" k3="1"/>
<feColorMatrix type="matrix" values="0 0 0 0 1 0 0 0 0 1 0 0 0 0 1 0 0 0 0.08 0"/>
<feBlend mode="normal" in2="effect2_innerShadow_360_3006" result="effect3_innerShadow_360_3006"/>
</filter>
<radialGradient id="paint0_radial_360_3006" cx="0" cy="0" r="1" gradientUnits="userSpaceOnUse" gradientTransform="translate(184 280) rotate(89.8527) scale(256.001)">
<stop stop-color="#00ECBC"/>
<stop offset="1" stop-color="#00ECBC" stop-opacity="0"/>
</radialGradient>
<clipPath id="clip0_360_3006">
<rect width="368" height="560" rx="32" fill="white"/>
</clipPath>
<clipPath id="clip1_360_3006">
<rect width="624" height="624" fill="white" transform="translate(-288 243)"/>
</clipPath>
<clipPath id="clip2_360_3006">
<rect width="624" height="624" fill="white" transform="translate(-288 243)"/>
</clipPath>
</defs>
</svg>
