<svg width="368" height="560" viewBox="0 0 368 560" fill="none" xmlns="http://www.w3.org/2000/svg">
<g filter="url(#filter0_i_360_3125)">
<g clip-path="url(#clip0_360_3125)">
<rect width="368" height="560" rx="32" fill="#6B7280" fill-opacity="0.1"/>
<g opacity="0.08" filter="url(#filter1_f_360_3125)">
<path d="M320 248C320 389.385 205.385 504 64 504C-77.3849 504 -192 389.385 -192 248C-192 106.615 -77.3849 -8 64 -8C205.385 -8 320 106.615 320 248Z" fill="url(#paint0_radial_360_3125)"/>
</g>
<g filter="url(#filter2_d_360_3125)">
<path d="M-24 407.232C-12.3443 414.409 14.7399 426.014 29.831 415.02C48.6948 401.277 49.615 379.748 74 367.838C98.385 355.927 126.384 376.732 138.873 383.412C152.323 390.606 193.164 391.658 204.207 356.386C208.229 343.535 232.217 343.89 238.253 363.257C244.535 383.412 277.822 378.373 291.624 346.308C305.427 314.242 327.972 317.907 335.333 324.32C343.431 329.451 360.485 341.116 368 346.308" stroke="url(#paint1_linear_360_3125)" stroke-width="4"/>
</g>
<g filter="url(#filter3_d_360_3125)">
<path d="M-24 398.744C-12.3443 405.921 14.7399 417.526 29.831 406.532C48.6948 392.789 64.6623 410.655 89.0472 398.744C113.432 386.834 120.411 351.252 134.575 351.252C158.882 351.252 178.338 406.043 211.74 390.221C233.732 379.803 237.642 381.826 256.11 390.221C281.575 401.795 283.644 361.3 291.624 337.82C302.795 304.953 333.245 336.737 340.606 343.15C348.704 348.28 360.485 332.628 368 337.82" stroke="url(#paint2_linear_360_3125)" stroke-width="4" shape-rendering="crispEdges"/>
</g>
<rect x="225.559" y="345.465" width="28.5512" height="148.157" fill="url(#paint3_linear_360_3125)"/>
<rect x="70" y="346" width="28.5512" height="148.157" fill="url(#paint4_linear_360_3125)"/>
<circle cx="240.221" cy="383.818" r="6.25984" fill="#FCCB93" stroke="white" stroke-width="6"/>
<circle cx="84.1505" cy="363.951" r="6.25984" fill="#FCCB93" stroke="white" stroke-width="6"/>
<path d="M17 448H350.354" stroke="url(#paint5_radial_360_3125)"/>
<path d="M25.2 465.89V465.43L26.18 465.21V465.88C26.18 466.333 26.29 466.673 26.51 466.9C26.73 467.127 27.0267 467.24 27.4 467.24C27.76 467.24 28.0433 467.127 28.25 466.9C28.4567 466.673 28.56 466.357 28.56 465.95V460.91H29.54V465.88C29.54 466.52 29.3433 467.06 28.95 467.5C28.5633 467.933 28.05 468.15 27.41 468.15C26.7233 468.15 26.1833 467.947 25.79 467.54C25.3967 467.127 25.2 466.577 25.2 465.89ZM35.8491 468L35.0791 466.02H31.9391L31.1891 468H30.1391L32.9591 460.91H34.0891L36.9091 468H35.8491ZM33.4991 461.93L32.2891 465.11H34.7291L33.4991 461.93ZM43.7417 468H42.7217L38.8917 462.22V468H37.9117V460.91H39.2217L42.7617 466.35V460.91H43.7417V468Z" fill="#79797D"/>
<path d="M77.8087 468H76.8287V460.91H81.1387V461.82H77.8087V464.1H80.8287V465.02H77.8087V468ZM86.6465 468H82.3365V460.91H86.6465V461.82H83.3165V464H86.3365V464.92H83.3165V467.09H86.6465V468ZM88.1471 460.91H90.4571C91.1171 460.91 91.6371 461.087 92.0171 461.44C92.4037 461.793 92.5971 462.257 92.5971 462.83C92.5971 463.197 92.5004 463.513 92.3071 463.78C92.1137 464.047 91.8571 464.24 91.5371 464.36C91.9304 464.46 92.2404 464.67 92.4671 464.99C92.7004 465.303 92.8171 465.663 92.8171 466.07C92.8171 466.63 92.6137 467.093 92.2071 467.46C91.8004 467.82 91.2737 468 90.6271 468H88.1471V460.91ZM89.1271 464.01H90.3471C90.7337 464.01 91.0404 463.907 91.2671 463.7C91.4937 463.487 91.6071 463.213 91.6071 462.88C91.6071 462.54 91.4904 462.27 91.2571 462.07C91.0237 461.87 90.7071 461.77 90.3071 461.77H89.1271V464.01ZM89.1271 467.14H90.4871C90.8871 467.14 91.2071 467.037 91.4471 466.83C91.6937 466.623 91.8171 466.35 91.8171 466.01C91.8171 465.657 91.7071 465.377 91.4871 465.17C91.2671 464.957 90.9471 464.85 90.5271 464.85H89.1271V467.14Z" fill="#79797D"/>
<path d="M135.418 468H134.448V462.48L132.028 468H131.128L128.728 462.48V468H127.758V460.91H129.088L131.588 466.68L134.108 460.91H135.418V468ZM142.131 468L141.361 466.02H138.221L137.471 468H136.421L139.241 460.91H140.371L143.191 468H142.131ZM139.781 461.93L138.571 465.11H141.011L139.781 461.93ZM147.864 468L146.244 465.1H145.184V468H144.194V460.91H146.864C147.517 460.91 148.041 461.113 148.434 461.52C148.834 461.92 149.034 462.42 149.034 463.02C149.034 463.533 148.881 463.973 148.574 464.34C148.267 464.7 147.847 464.93 147.314 465.03L149.004 468H147.864ZM145.184 464.22H146.684C147.084 464.22 147.407 464.113 147.654 463.9C147.901 463.68 148.024 463.387 148.024 463.02C148.024 462.647 147.901 462.35 147.654 462.13C147.407 461.903 147.084 461.79 146.684 461.79H145.184V464.22Z" fill="#79797D"/>
<path d="M185.913 468L185.143 466.02H182.003L181.253 468H180.203L183.023 460.91H184.153L186.973 468H185.913ZM183.563 461.93L182.353 465.11H184.793L183.563 461.93ZM188.955 464.22H190.375C190.795 464.22 191.129 464.113 191.375 463.9C191.622 463.68 191.745 463.387 191.745 463.02C191.745 462.647 191.622 462.35 191.375 462.13C191.129 461.903 190.795 461.79 190.375 461.79H188.955V464.22ZM190.555 465.1H188.955V468H187.975V460.91H190.555C191.202 460.91 191.729 461.11 192.135 461.51C192.542 461.91 192.745 462.41 192.745 463.01C192.745 463.617 192.542 464.117 192.135 464.51C191.729 464.903 191.202 465.1 190.555 465.1ZM197.612 468L195.992 465.1H194.932V468H193.942V460.91H196.612C197.265 460.91 197.789 461.113 198.182 461.52C198.582 461.92 198.782 462.42 198.782 463.02C198.782 463.533 198.629 463.973 198.322 464.34C198.015 464.7 197.595 464.93 197.062 465.03L198.752 468H197.612ZM194.932 464.22H196.432C196.832 464.22 197.155 464.113 197.402 463.9C197.649 463.68 197.772 463.387 197.772 463.02C197.772 462.647 197.649 462.35 197.402 462.13C197.155 461.903 196.832 461.79 196.432 461.79H194.932V464.22Z" fill="#79797D"/>
<path d="M230.46 465.89V465.43L231.44 465.21V465.88C231.44 466.333 231.55 466.673 231.77 466.9C231.99 467.127 232.286 467.24 232.66 467.24C233.02 467.24 233.303 467.127 233.51 466.9C233.716 466.673 233.82 466.357 233.82 465.95V460.91H234.8V465.88C234.8 466.52 234.603 467.06 234.21 467.5C233.823 467.933 233.31 468.15 232.67 468.15C231.983 468.15 231.443 467.947 231.05 467.54C230.656 467.127 230.46 466.577 230.46 465.89ZM240.782 467.47C240.308 467.923 239.698 468.15 238.952 468.15C238.205 468.15 237.592 467.923 237.112 467.47C236.638 467.017 236.402 466.387 236.402 465.58V460.91H237.372V465.55C237.372 466.09 237.508 466.507 237.782 466.8C238.062 467.093 238.452 467.24 238.952 467.24C239.452 467.24 239.838 467.093 240.112 466.8C240.385 466.507 240.522 466.09 240.522 465.55V460.91H241.502V465.58C241.502 466.387 241.262 467.017 240.782 467.47ZM249.031 468H248.011L244.181 462.22V468H243.201V460.91H244.511L248.051 466.35V460.91H249.031V468Z" fill="#79797D"/>
<path d="M280.617 465.89V465.43L281.597 465.21V465.88C281.597 466.333 281.707 466.673 281.927 466.9C282.147 467.127 282.444 467.24 282.817 467.24C283.177 467.24 283.46 467.127 283.667 466.9C283.874 466.673 283.977 466.357 283.977 465.95V460.91H284.957V465.88C284.957 466.52 284.76 467.06 284.367 467.5C283.98 467.933 283.467 468.15 282.827 468.15C282.14 468.15 281.6 467.947 281.207 467.54C280.814 467.127 280.617 466.577 280.617 465.89ZM290.939 467.47C290.465 467.923 289.855 468.15 289.109 468.15C288.362 468.15 287.749 467.923 287.269 467.47C286.795 467.017 286.559 466.387 286.559 465.58V460.91H287.529V465.55C287.529 466.09 287.665 466.507 287.939 466.8C288.219 467.093 288.609 467.24 289.109 467.24C289.609 467.24 289.995 467.093 290.269 466.8C290.542 466.507 290.679 466.09 290.679 465.55V460.91H291.659V465.58C291.659 466.387 291.419 467.017 290.939 467.47ZM297.688 468H293.358V460.91H294.338V467.08H297.688V468Z" fill="#79797D"/>
<path d="M330.211 468L329.441 466.02H326.301L325.551 468H324.501L327.321 460.91H328.451L331.271 468H330.211ZM327.861 461.93L326.651 465.11H329.091L327.861 461.93ZM336.408 467.47C335.934 467.923 335.324 468.15 334.578 468.15C333.831 468.15 333.218 467.923 332.738 467.47C332.264 467.017 332.028 466.387 332.028 465.58V460.91H332.998V465.55C332.998 466.09 333.134 466.507 333.408 466.8C333.688 467.093 334.078 467.24 334.578 467.24C335.078 467.24 335.464 467.093 335.738 466.8C336.011 466.507 336.148 466.09 336.148 465.55V460.91H337.128V465.58C337.128 466.387 336.888 467.017 336.408 467.47ZM344.967 468H344.177L344.087 467C343.913 467.313 343.63 467.583 343.237 467.81C342.843 468.037 342.37 468.15 341.817 468.15C341.21 468.15 340.65 468.013 340.137 467.74C339.623 467.46 339.2 467.033 338.867 466.46C338.54 465.887 338.377 465.217 338.377 464.45C338.377 463.683 338.55 463.013 338.897 462.44C339.243 461.867 339.677 461.443 340.197 461.17C340.723 460.897 341.287 460.76 341.887 460.76C342.647 460.76 343.307 460.957 343.867 461.35C344.433 461.737 344.82 462.253 345.027 462.9L344.137 463.28C343.977 462.767 343.697 462.37 343.297 462.09C342.903 461.803 342.433 461.66 341.887 461.66C341.2 461.66 340.61 461.903 340.117 462.39C339.623 462.877 339.377 463.563 339.377 464.45C339.377 465.343 339.617 466.037 340.097 466.53C340.583 467.017 341.167 467.26 341.847 467.26C342.22 467.26 342.55 467.2 342.837 467.08C343.13 466.96 343.357 466.803 343.517 466.61C343.683 466.41 343.807 466.21 343.887 466.01C343.973 465.81 344.023 465.61 344.037 465.41H341.577V464.53H344.967V468Z" fill="#79797D"/>
<path fill-rule="evenodd" clip-rule="evenodd" d="M221.07 350.867C217.757 350.867 215.07 353.553 215.07 356.867V364.159C215.07 367.472 217.757 370.159 221.07 370.159H235.451C235.502 370.236 235.565 370.308 235.642 370.374L238.288 372.642C238.685 372.983 239.277 372.96 239.646 372.59L241.914 370.322C241.966 370.27 242.011 370.216 242.048 370.159H255.37C258.683 370.159 261.37 367.472 261.37 364.159V356.867C261.37 353.553 258.683 350.867 255.37 350.867H221.07Z" fill="#004DAF"/>
<path fill-rule="evenodd" clip-rule="evenodd" d="M66 330C62.6863 330 60 332.686 60 336V343.291C60 346.605 62.6863 349.291 66 349.291H80.3806C80.4314 349.368 80.495 349.441 80.5721 349.507L83.2182 351.775C83.6149 352.115 84.2066 352.093 84.5761 351.723L86.8441 349.455C86.8959 349.403 86.9405 349.348 86.9781 349.291H100.299C103.613 349.291 106.299 346.605 106.299 343.291V336C106.299 332.686 103.613 330 100.299 330H66Z" fill="#00A685"/>
<path d="M219.693 364V357.295H221.889C222.585 357.295 223.188 357.436 223.698 357.718C224.214 357.994 224.613 358.384 224.895 358.888C225.177 359.392 225.318 359.977 225.318 360.643C225.318 361.303 225.177 361.888 224.895 362.398C224.613 362.902 224.214 363.295 223.698 363.577C223.188 363.859 222.585 364 221.889 364H219.693ZM220.755 363.055H221.907C222.381 363.055 222.792 362.956 223.14 362.758C223.494 362.56 223.767 362.281 223.959 361.921C224.151 361.561 224.247 361.135 224.247 360.643C224.247 360.151 224.148 359.728 223.95 359.374C223.758 359.014 223.488 358.735 223.14 358.537C222.792 358.339 222.381 358.24 221.907 358.24H220.755V363.055ZM228.551 364.108C228.065 364.108 227.633 363.997 227.255 363.775C226.883 363.547 226.592 363.241 226.382 362.857C226.172 362.467 226.067 362.032 226.067 361.552C226.067 361.06 226.172 360.625 226.382 360.247C226.598 359.869 226.886 359.572 227.246 359.356C227.606 359.134 228.014 359.023 228.47 359.023C228.836 359.023 229.163 359.086 229.451 359.212C229.739 359.338 229.982 359.512 230.18 359.734C230.378 359.95 230.528 360.199 230.63 360.481C230.738 360.763 230.792 361.063 230.792 361.381C230.792 361.459 230.789 361.54 230.783 361.624C230.777 361.708 230.765 361.786 230.747 361.858H226.868V361.048H230.171L229.685 361.417C229.745 361.123 229.724 360.862 229.622 360.634C229.526 360.4 229.376 360.217 229.172 360.085C228.974 359.947 228.74 359.878 228.47 359.878C228.2 359.878 227.96 359.947 227.75 360.085C227.54 360.217 227.378 360.409 227.264 360.661C227.15 360.907 227.105 361.207 227.129 361.561C227.099 361.891 227.144 362.179 227.264 362.425C227.39 362.671 227.564 362.863 227.786 363.001C228.014 363.139 228.272 363.208 228.56 363.208C228.854 363.208 229.103 363.142 229.307 363.01C229.517 362.878 229.682 362.707 229.802 362.497L230.63 362.902C230.534 363.13 230.384 363.337 230.18 363.523C229.982 363.703 229.742 363.847 229.46 363.955C229.184 364.057 228.881 364.108 228.551 364.108ZM231.784 365.8V359.131H232.756V360.139L232.639 359.905C232.819 359.629 233.059 359.413 233.359 359.257C233.659 359.101 234.001 359.023 234.385 359.023C234.847 359.023 235.261 359.134 235.627 359.356C235.999 359.578 236.29 359.881 236.5 360.265C236.716 360.649 236.824 361.081 236.824 361.561C236.824 362.041 236.716 362.473 236.5 362.857C236.29 363.241 236.002 363.547 235.636 363.775C235.27 363.997 234.853 364.108 234.385 364.108C234.007 364.108 233.662 364.03 233.35 363.874C233.044 363.718 232.807 363.493 232.639 363.199L232.801 363.01V365.8H231.784ZM234.286 363.163C234.574 363.163 234.829 363.094 235.051 362.956C235.273 362.818 235.447 362.629 235.573 362.389C235.705 362.143 235.771 361.867 235.771 361.561C235.771 361.255 235.705 360.982 235.573 360.742C235.447 360.502 235.273 360.313 235.051 360.175C234.829 360.037 234.574 359.968 234.286 359.968C234.004 359.968 233.749 360.037 233.521 360.175C233.299 360.313 233.122 360.502 232.99 360.742C232.864 360.982 232.801 361.255 232.801 361.561C232.801 361.867 232.864 362.143 232.99 362.389C233.122 362.629 233.299 362.818 233.521 362.956C233.749 363.094 234.004 363.163 234.286 363.163ZM240.163 364.108C239.695 364.108 239.266 363.997 238.876 363.775C238.492 363.553 238.186 363.25 237.958 362.866C237.73 362.482 237.616 362.047 237.616 361.561C237.616 361.069 237.73 360.634 237.958 360.256C238.186 359.872 238.492 359.572 238.876 359.356C239.26 359.134 239.689 359.023 240.163 359.023C240.643 359.023 241.072 359.134 241.45 359.356C241.834 359.572 242.137 359.872 242.359 360.256C242.587 360.634 242.701 361.069 242.701 361.561C242.701 362.053 242.587 362.491 242.359 362.875C242.131 363.259 241.825 363.562 241.441 363.784C241.057 364 240.631 364.108 240.163 364.108ZM240.163 363.163C240.451 363.163 240.706 363.094 240.928 362.956C241.15 362.818 241.324 362.629 241.45 362.389C241.582 362.143 241.648 361.867 241.648 361.561C241.648 361.255 241.582 360.982 241.45 360.742C241.324 360.502 241.15 360.313 240.928 360.175C240.706 360.037 240.451 359.968 240.163 359.968C239.881 359.968 239.626 360.037 239.398 360.175C239.176 360.313 238.999 360.502 238.867 360.742C238.741 360.982 238.678 361.255 238.678 361.561C238.678 361.867 238.741 362.143 238.867 362.389C238.999 362.629 239.176 362.818 239.398 362.956C239.626 363.094 239.881 363.163 240.163 363.163ZM245.494 364.108C244.996 364.108 244.558 363.985 244.18 363.739C243.808 363.493 243.547 363.163 243.397 362.749L244.18 362.38C244.312 362.656 244.492 362.875 244.72 363.037C244.954 363.199 245.212 363.28 245.494 363.28C245.734 363.28 245.929 363.226 246.079 363.118C246.229 363.01 246.304 362.863 246.304 362.677C246.304 362.557 246.271 362.461 246.205 362.389C246.139 362.311 246.055 362.248 245.953 362.2C245.857 362.152 245.758 362.116 245.656 362.092L244.891 361.876C244.471 361.756 244.156 361.576 243.946 361.336C243.742 361.09 243.64 360.805 243.64 360.481C243.64 360.187 243.715 359.932 243.865 359.716C244.015 359.494 244.222 359.323 244.486 359.203C244.75 359.083 245.047 359.023 245.377 359.023C245.821 359.023 246.217 359.134 246.565 359.356C246.913 359.572 247.159 359.875 247.303 360.265L246.52 360.634C246.424 360.4 246.271 360.214 246.061 360.076C245.857 359.938 245.626 359.869 245.368 359.869C245.146 359.869 244.969 359.923 244.837 360.031C244.705 360.133 244.639 360.268 244.639 360.436C244.639 360.55 244.669 360.646 244.729 360.724C244.789 360.796 244.867 360.856 244.963 360.904C245.059 360.946 245.158 360.982 245.26 361.012L246.052 361.246C246.454 361.36 246.763 361.54 246.979 361.786C247.195 362.026 247.303 362.314 247.303 362.65C247.303 362.938 247.225 363.193 247.069 363.415C246.919 363.631 246.709 363.802 246.439 363.928C246.169 364.048 245.854 364.108 245.494 364.108ZM248.299 364V359.131H249.316V364H248.299ZM248.299 358.465V357.295H249.316V358.465H248.299ZM252.611 364.054C252.101 364.054 251.705 363.91 251.423 363.622C251.141 363.334 251 362.929 251 362.407V360.049H250.145V359.131H250.28C250.508 359.131 250.685 359.065 250.811 358.933C250.937 358.801 251 358.621 251 358.393V358.015H252.017V359.131H253.124V360.049H252.017V362.362C252.017 362.53 252.044 362.674 252.098 362.794C252.152 362.908 252.239 362.998 252.359 363.064C252.479 363.124 252.635 363.154 252.827 363.154C252.875 363.154 252.929 363.151 252.989 363.145C253.049 363.139 253.106 363.133 253.16 363.127V364C253.076 364.012 252.983 364.024 252.881 364.036C252.779 364.048 252.689 364.054 252.611 364.054ZM255.953 364.108C255.455 364.108 255.017 363.985 254.639 363.739C254.267 363.493 254.006 363.163 253.856 362.749L254.639 362.38C254.771 362.656 254.951 362.875 255.179 363.037C255.413 363.199 255.671 363.28 255.953 363.28C256.193 363.28 256.388 363.226 256.538 363.118C256.688 363.01 256.763 362.863 256.763 362.677C256.763 362.557 256.73 362.461 256.664 362.389C256.598 362.311 256.514 362.248 256.412 362.2C256.316 362.152 256.217 362.116 256.115 362.092L255.35 361.876C254.93 361.756 254.615 361.576 254.405 361.336C254.201 361.09 254.099 360.805 254.099 360.481C254.099 360.187 254.174 359.932 254.324 359.716C254.474 359.494 254.681 359.323 254.945 359.203C255.209 359.083 255.506 359.023 255.836 359.023C256.28 359.023 256.676 359.134 257.024 359.356C257.372 359.572 257.618 359.875 257.762 360.265L256.979 360.634C256.883 360.4 256.73 360.214 256.52 360.076C256.316 359.938 256.085 359.869 255.827 359.869C255.605 359.869 255.428 359.923 255.296 360.031C255.164 360.133 255.098 360.268 255.098 360.436C255.098 360.55 255.128 360.646 255.188 360.724C255.248 360.796 255.326 360.856 255.422 360.904C255.518 360.946 255.617 360.982 255.719 361.012L256.511 361.246C256.913 361.36 257.222 361.54 257.438 361.786C257.654 362.026 257.762 362.314 257.762 362.65C257.762 362.938 257.684 363.193 257.528 363.415C257.378 363.631 257.168 363.802 256.898 363.928C256.628 364.048 256.313 364.108 255.953 364.108Z" fill="white"/>
<path d="M71.7457 342.241C71.2717 342.241 70.8307 342.154 70.4227 341.98C70.0207 341.806 69.6697 341.566 69.3697 341.26C69.0757 340.948 68.8447 340.582 68.6767 340.162C68.5087 339.742 68.4247 339.28 68.4247 338.776C68.4247 338.278 68.5057 337.819 68.6677 337.399C68.8357 336.973 69.0697 336.607 69.3697 336.301C69.6697 335.989 70.0207 335.749 70.4227 335.581C70.8247 335.407 71.2657 335.32 71.7457 335.32C72.2197 335.32 72.6427 335.401 73.0147 335.563C73.3927 335.725 73.7107 335.938 73.9687 336.202C74.2267 336.46 74.4127 336.742 74.5267 337.048L73.5727 337.498C73.4287 337.138 73.1977 336.847 72.8797 336.625C72.5677 336.397 72.1897 336.283 71.7457 336.283C71.3017 336.283 70.9087 336.388 70.5667 336.598C70.2247 336.808 69.9577 337.099 69.7657 337.471C69.5797 337.843 69.4867 338.278 69.4867 338.776C69.4867 339.274 69.5797 339.712 69.7657 340.09C69.9577 340.462 70.2247 340.753 70.5667 340.963C70.9087 341.167 71.3017 341.269 71.7457 341.269C72.1897 341.269 72.5677 341.158 72.8797 340.936C73.1977 340.714 73.4287 340.423 73.5727 340.063L74.5267 340.513C74.4127 340.813 74.2267 341.095 73.9687 341.359C73.7107 341.623 73.3927 341.836 73.0147 341.998C72.6427 342.16 72.2197 342.241 71.7457 342.241ZM77.7809 342.241C77.3129 342.241 76.8839 342.13 76.4939 341.908C76.1099 341.686 75.8039 341.383 75.5759 340.999C75.3479 340.615 75.2339 340.18 75.2339 339.694C75.2339 339.202 75.3479 338.767 75.5759 338.389C75.8039 338.005 76.1099 337.705 76.4939 337.489C76.8779 337.267 77.3069 337.156 77.7809 337.156C78.2609 337.156 78.6899 337.267 79.0679 337.489C79.4519 337.705 79.7549 338.005 79.9769 338.389C80.2049 338.767 80.3189 339.202 80.3189 339.694C80.3189 340.186 80.2049 340.624 79.9769 341.008C79.7489 341.392 79.4429 341.695 79.0589 341.917C78.6749 342.133 78.2489 342.241 77.7809 342.241ZM77.7809 341.296C78.0689 341.296 78.3239 341.227 78.5459 341.089C78.7679 340.951 78.9419 340.762 79.0679 340.522C79.1999 340.276 79.2659 340 79.2659 339.694C79.2659 339.388 79.1999 339.115 79.0679 338.875C78.9419 338.635 78.7679 338.446 78.5459 338.308C78.3239 338.17 78.0689 338.101 77.7809 338.101C77.4989 338.101 77.2439 338.17 77.0159 338.308C76.7939 338.446 76.6169 338.635 76.4849 338.875C76.3589 339.115 76.2959 339.388 76.2959 339.694C76.2959 340 76.3589 340.276 76.4849 340.522C76.6169 340.762 76.7939 340.951 77.0159 341.089C77.2439 341.227 77.4989 341.296 77.7809 341.296ZM82.6369 342.133L80.7289 337.264H81.8359L83.3029 341.233H82.8979L84.3649 337.264H85.4809L83.5639 342.133H82.6369ZM88.3702 342.241C87.8842 342.241 87.4522 342.13 87.0742 341.908C86.7022 341.68 86.4112 341.374 86.2012 340.99C85.9912 340.6 85.8862 340.165 85.8862 339.685C85.8862 339.193 85.9912 338.758 86.2012 338.38C86.4172 338.002 86.7052 337.705 87.0652 337.489C87.4252 337.267 87.8332 337.156 88.2892 337.156C88.6552 337.156 88.9822 337.219 89.2702 337.345C89.5582 337.471 89.8012 337.645 89.9992 337.867C90.1972 338.083 90.3472 338.332 90.4492 338.614C90.5572 338.896 90.6112 339.196 90.6112 339.514C90.6112 339.592 90.6082 339.673 90.6022 339.757C90.5962 339.841 90.5842 339.919 90.5662 339.991H86.6872V339.181H89.9902L89.5042 339.55C89.5642 339.256 89.5432 338.995 89.4412 338.767C89.3452 338.533 89.1952 338.35 88.9912 338.218C88.7932 338.08 88.5592 338.011 88.2892 338.011C88.0192 338.011 87.7792 338.08 87.5692 338.218C87.3592 338.35 87.1972 338.542 87.0832 338.794C86.9692 339.04 86.9242 339.34 86.9482 339.694C86.9182 340.024 86.9632 340.312 87.0832 340.558C87.2092 340.804 87.3832 340.996 87.6052 341.134C87.8332 341.272 88.0912 341.341 88.3792 341.341C88.6732 341.341 88.9222 341.275 89.1262 341.143C89.3362 341.011 89.5012 340.84 89.6212 340.63L90.4492 341.035C90.3532 341.263 90.2032 341.47 89.9992 341.656C89.8012 341.836 89.5612 341.98 89.2792 342.088C89.0032 342.19 88.7002 342.241 88.3702 342.241ZM91.6038 342.133V337.264H92.5758V338.245L92.4858 338.101C92.5938 337.783 92.7678 337.555 93.0078 337.417C93.2478 337.273 93.5358 337.201 93.8718 337.201H94.1688V338.128H93.7458C93.4098 338.128 93.1368 338.233 92.9268 338.443C92.7228 338.647 92.6208 338.941 92.6208 339.325V342.133H91.6038ZM96.6645 342.241C96.1665 342.241 95.7285 342.118 95.3505 341.872C94.9785 341.626 94.7175 341.296 94.5675 340.882L95.3505 340.513C95.4825 340.789 95.6625 341.008 95.8905 341.17C96.1245 341.332 96.3825 341.413 96.6645 341.413C96.9045 341.413 97.0995 341.359 97.2495 341.251C97.3995 341.143 97.4745 340.996 97.4745 340.81C97.4745 340.69 97.4415 340.594 97.3755 340.522C97.3095 340.444 97.2255 340.381 97.1235 340.333C97.0275 340.285 96.9285 340.249 96.8265 340.225L96.0615 340.009C95.6415 339.889 95.3265 339.709 95.1165 339.469C94.9125 339.223 94.8105 338.938 94.8105 338.614C94.8105 338.32 94.8855 338.065 95.0355 337.849C95.1855 337.627 95.3925 337.456 95.6565 337.336C95.9205 337.216 96.2175 337.156 96.5475 337.156C96.9915 337.156 97.3875 337.267 97.7355 337.489C98.0835 337.705 98.3295 338.008 98.4735 338.398L97.6905 338.767C97.5945 338.533 97.4415 338.347 97.2315 338.209C97.0275 338.071 96.7965 338.002 96.5385 338.002C96.3165 338.002 96.1395 338.056 96.0075 338.164C95.8755 338.266 95.8095 338.401 95.8095 338.569C95.8095 338.683 95.8395 338.779 95.8995 338.857C95.9595 338.929 96.0375 338.989 96.1335 339.037C96.2295 339.079 96.3285 339.115 96.4305 339.145L97.2225 339.379C97.6245 339.493 97.9335 339.673 98.1495 339.919C98.3655 340.159 98.4735 340.447 98.4735 340.783C98.4735 341.071 98.3955 341.326 98.2395 341.548C98.0895 341.764 97.8795 341.935 97.6095 342.061C97.3395 342.181 97.0245 342.241 96.6645 342.241Z" fill="white"/>
</g>
<rect x="0.5" y="0.5" width="367" height="559" rx="31.5" stroke="#6B7280"/>
</g>
<defs>
<filter id="filter0_i_360_3125" x="0" y="0" width="368" height="560" filterUnits="userSpaceOnUse" color-interpolation-filters="sRGB">
<feFlood flood-opacity="0" result="BackgroundImageFix"/>
<feBlend mode="normal" in="SourceGraphic" in2="BackgroundImageFix" result="shape"/>
<feColorMatrix in="SourceAlpha" type="matrix" values="0 0 0 0 0 0 0 0 0 0 0 0 0 0 0 0 0 0 127 0" result="hardAlpha"/>
<feOffset dy="1"/>
<feComposite in2="hardAlpha" operator="arithmetic" k2="-1" k3="1"/>
<feColorMatrix type="matrix" values="0 0 0 0 1 0 0 0 0 1 0 0 0 0 1 0 0 0 0.08 0"/>
<feBlend mode="normal" in2="shape" result="effect1_innerShadow_360_3125"/>
</filter>
<filter id="filter1_f_360_3125" x="-320" y="-136" width="768" height="768" filterUnits="userSpaceOnUse" color-interpolation-filters="sRGB">
<feFlood flood-opacity="0" result="BackgroundImageFix"/>
<feBlend mode="normal" in="SourceGraphic" in2="BackgroundImageFix" result="shape"/>
<feGaussianBlur stdDeviation="64" result="effect1_foregroundBlur_360_3125"/>
</filter>
<filter id="filter2_d_360_3125" x="-39.0488" y="300" width="422.186" height="131.543" filterUnits="userSpaceOnUse" color-interpolation-filters="sRGB">
<feFlood flood-opacity="0" result="BackgroundImageFix"/>
<feColorMatrix in="SourceAlpha" type="matrix" values="0 0 0 0 0 0 0 0 0 0 0 0 0 0 0 0 0 0 127 0" result="hardAlpha"/>
<feOffset dy="-4"/>
<feGaussianBlur stdDeviation="7"/>
<feColorMatrix type="matrix" values="0 0 0 0 0 0 0 0 0 0.92549 0 0 0 0 0.737255 0 0 0 0.7 0"/>
<feBlend mode="normal" in2="BackgroundImageFix" result="effect1_dropShadow_360_3125"/>
<feBlend mode="normal" in="SourceGraphic" in2="effect1_dropShadow_360_3125" result="shape"/>
</filter>
<filter id="filter3_d_360_3125" x="-39.0488" y="303.168" width="422.186" height="119.887" filterUnits="userSpaceOnUse" color-interpolation-filters="sRGB">
<feFlood flood-opacity="0" result="BackgroundImageFix"/>
<feColorMatrix in="SourceAlpha" type="matrix" values="0 0 0 0 0 0 0 0 0 0 0 0 0 0 0 0 0 0 127 0" result="hardAlpha"/>
<feOffset dy="-4"/>
<feGaussianBlur stdDeviation="7"/>
<feComposite in2="hardAlpha" operator="out"/>
<feColorMatrix type="matrix" values="0 0 0 0 0 0 0 0 0 0.301961 0 0 0 0 0.686275 0 0 0 0.7 0"/>
<feBlend mode="normal" in2="BackgroundImageFix" result="effect1_dropShadow_360_3125"/>
<feBlend mode="normal" in="SourceGraphic" in2="effect1_dropShadow_360_3125" result="shape"/>
</filter>
<radialGradient id="paint0_radial_360_3125" cx="0" cy="0" r="1" gradientUnits="userSpaceOnUse" gradientTransform="translate(64 248) rotate(89.8527) scale(256.001)">
<stop stop-color="#00ECBC"/>
<stop offset="1" stop-color="#00ECBC" stop-opacity="0"/>
</radialGradient>
<linearGradient id="paint1_linear_360_3125" x1="340.22" y1="328.874" x2="4.55118" y2="424.945" gradientUnits="userSpaceOnUse">
<stop stop-color="#00ECBC" stop-opacity="0"/>
<stop offset="0.122203" stop-color="#00ECBC" stop-opacity="0.8"/>
<stop offset="0.501015" stop-color="#00ECBC"/>
<stop offset="0.926132" stop-color="#00ECBC" stop-opacity="0.8"/>
<stop offset="1" stop-color="#00ECBC" stop-opacity="0"/>
</linearGradient>
<linearGradient id="paint2_linear_360_3125" x1="339.063" y1="338.52" x2="0.6929" y2="437.677" gradientUnits="userSpaceOnUse">
<stop stop-color="#004DAF" stop-opacity="0"/>
<stop offset="0.084027" stop-color="#004DAF"/>
<stop offset="0.643955" stop-color="#004DAF"/>
<stop offset="1" stop-color="#004DAF" stop-opacity="0"/>
</linearGradient>
<linearGradient id="paint3_linear_360_3125" x1="239.834" y1="345.465" x2="239.834" y2="493.622" gradientUnits="userSpaceOnUse">
<stop stop-opacity="0"/>
<stop offset="0.480673" stop-color="#004DAF" stop-opacity="0.23"/>
<stop offset="1" stop-opacity="0"/>
</linearGradient>
<linearGradient id="paint4_linear_360_3125" x1="84.2756" y1="346" x2="84.2756" y2="494.157" gradientUnits="userSpaceOnUse">
<stop stop-opacity="0"/>
<stop offset="0.480673" stop-color="#00ECBC" stop-opacity="0.23"/>
<stop offset="1" stop-opacity="0"/>
</linearGradient>
<radialGradient id="paint5_radial_360_3125" cx="0" cy="0" r="1" gradientUnits="userSpaceOnUse" gradientTransform="translate(183.677 448.5) rotate(90) scale(0.5 166.677)">
<stop stop-color="#C7C7C7"/>
<stop offset="1" stop-color="#E4E4E4" stop-opacity="0"/>
</radialGradient>
<clipPath id="clip0_360_3125">
<rect width="368" height="560" rx="32" fill="white"/>
</clipPath>
</defs>
</svg>
