<svg width="368" height="560" viewBox="0 0 368 560" fill="none" xmlns="http://www.w3.org/2000/svg">
<g filter="url(#filter0_i_360_3013)">
<g clip-path="url(#clip0_360_3013)">
<rect width="368" height="560" rx="32" fill="#6B7280" fill-opacity="0.1"/>
<g opacity="0.08" filter="url(#filter1_f_360_3013)">
<path d="M320 248C320 389.385 205.385 504 64 504C-77.3849 504 -192 389.385 -192 248C-192 106.615 -77.3849 -8 64 -8C205.385 -8 320 106.615 320 248Z" fill="url(#paint0_radial_360_3013)"/>
</g>
<g filter="url(#filter2_d_360_3013)">
<path d="M-29.3438 533.854H-47V584C-47 584.552 -46.5523 585 -46 585H413.464C414.017 585 414.464 584.552 414.464 584V261.612L394.72 303.003C394.299 303.884 392.995 303.703 392.831 302.74L383.654 248.832C383.572 248.352 383.156 248 382.668 248H357.349C356.997 248 356.671 248.185 356.49 248.487L339.063 277.67C338.758 278.181 338.077 278.314 337.602 277.955L317.275 262.59C316.681 262.141 315.823 262.475 315.688 263.207L299.652 350.481C299.477 351.433 298.188 351.606 297.768 350.735L280.505 314.945C280.111 314.128 278.918 314.216 278.649 315.084L275.728 324.504C275.493 325.263 274.509 325.457 274.003 324.845L265.061 314.031C264.564 313.429 263.599 313.604 263.345 314.343L250.2 352.499C250.013 353.04 249.411 353.314 248.88 353.1L234.117 347.149C233.528 346.911 232.87 347.276 232.759 347.902L216.165 441.554C216.118 441.822 215.964 442.058 215.738 442.21L191.855 458.257C191.307 458.625 190.559 458.371 190.349 457.745L173.463 407.475C173.154 406.555 171.847 406.57 171.56 407.497L164.148 431.401C164.076 431.634 163.92 431.834 163.71 431.96L147.526 441.747C147.288 441.891 147.121 442.128 147.064 442.4L137.407 489.117C137.343 489.43 137.132 489.693 136.841 489.825L115.136 499.669C114.915 499.769 114.739 499.946 114.638 500.166L100.158 532.006C99.815 532.762 98.7544 532.794 98.3651 532.062L87.3214 511.285C86.997 510.675 86.1658 510.57 85.6998 511.081L52.2438 547.734C51.8394 548.177 51.1386 548.167 50.7473 547.712L39.5944 534.753C39.1902 534.283 38.4606 534.291 38.0657 534.768L27.8658 547.104C27.6759 547.334 27.3933 547.467 27.0952 547.467H5.62096C5.27005 547.467 4.94482 547.283 4.76398 546.982L-16.4921 511.635C-16.9037 510.95 -17.9121 511.001 -18.2533 511.723L-28.4396 533.282C-28.6049 533.631 -28.957 533.854 -29.3438 533.854Z" fill="url(#paint1_linear_360_3013)" fill-opacity="0.24" shape-rendering="crispEdges"/>
<path d="M-29.3438 533.854H-47V584C-47 584.552 -46.5523 585 -46 585H413.464C414.017 585 414.464 584.552 414.464 584V261.612L394.72 303.003C394.299 303.884 392.995 303.703 392.831 302.74L383.654 248.832C383.572 248.352 383.156 248 382.668 248H357.349C356.997 248 356.671 248.185 356.49 248.487L339.063 277.67C338.758 278.181 338.077 278.314 337.602 277.955L317.275 262.59C316.681 262.141 315.823 262.475 315.688 263.207L299.652 350.481C299.477 351.433 298.188 351.606 297.768 350.735L280.505 314.945C280.111 314.128 278.918 314.216 278.649 315.084L275.728 324.504C275.493 325.263 274.509 325.457 274.003 324.845L265.061 314.031C264.564 313.429 263.599 313.604 263.345 314.343L250.2 352.499C250.013 353.04 249.411 353.314 248.88 353.1L234.117 347.149C233.528 346.911 232.87 347.276 232.759 347.902L216.165 441.554C216.118 441.822 215.964 442.058 215.738 442.21L191.855 458.257C191.307 458.625 190.559 458.371 190.349 457.745L173.463 407.475C173.154 406.555 171.847 406.57 171.56 407.497L164.148 431.401C164.076 431.634 163.92 431.834 163.71 431.96L147.526 441.747C147.288 441.891 147.121 442.128 147.064 442.4L137.407 489.117C137.343 489.43 137.132 489.693 136.841 489.825L115.136 499.669C114.915 499.769 114.739 499.946 114.638 500.166L100.158 532.006C99.815 532.762 98.7544 532.794 98.3651 532.062L87.3214 511.285C86.997 510.675 86.1658 510.57 85.6998 511.081L52.2438 547.734C51.8394 548.177 51.1386 548.167 50.7473 547.712L39.5944 534.753C39.1902 534.283 38.4606 534.291 38.0657 534.768L27.8658 547.104C27.6759 547.334 27.3933 547.467 27.0952 547.467H5.62096C5.27005 547.467 4.94482 547.283 4.76398 546.982L-16.4921 511.635C-16.9037 510.95 -17.9121 511.001 -18.2533 511.723L-28.4396 533.282C-28.6049 533.631 -28.957 533.854 -29.3438 533.854Z" stroke="#00ECBC" stroke-width="2" stroke-linecap="round" shape-rendering="crispEdges"/>
</g>
</g>
<rect x="0.5" y="0.5" width="367" height="559" rx="31.5" stroke="#6B7280"/>
</g>
<defs>
<filter id="filter0_i_360_3013" x="0" y="0" width="368" height="560" filterUnits="userSpaceOnUse" color-interpolation-filters="sRGB">
<feFlood flood-opacity="0" result="BackgroundImageFix"/>
<feBlend mode="normal" in="SourceGraphic" in2="BackgroundImageFix" result="shape"/>
<feColorMatrix in="SourceAlpha" type="matrix" values="0 0 0 0 0 0 0 0 0 0 0 0 0 0 0 0 0 0 127 0" result="hardAlpha"/>
<feOffset dy="1"/>
<feComposite in2="hardAlpha" operator="arithmetic" k2="-1" k3="1"/>
<feColorMatrix type="matrix" values="0 0 0 0 1 0 0 0 0 1 0 0 0 0 1 0 0 0 0.08 0"/>
<feBlend mode="normal" in2="shape" result="effect1_innerShadow_360_3013"/>
</filter>
<filter id="filter1_f_360_3013" x="-320" y="-136" width="768" height="768" filterUnits="userSpaceOnUse" color-interpolation-filters="sRGB">
<feFlood flood-opacity="0" result="BackgroundImageFix"/>
<feBlend mode="normal" in="SourceGraphic" in2="BackgroundImageFix" result="shape"/>
<feGaussianBlur stdDeviation="64" result="effect1_foregroundBlur_360_3013"/>
</filter>
<filter id="filter2_d_360_3013" x="-228" y="73" width="823.464" height="699" filterUnits="userSpaceOnUse" color-interpolation-filters="sRGB">
<feFlood flood-opacity="0" result="BackgroundImageFix"/>
<feColorMatrix in="SourceAlpha" type="matrix" values="0 0 0 0 0 0 0 0 0 0 0 0 0 0 0 0 0 0 127 0" result="hardAlpha"/>
<feOffset dy="6"/>
<feGaussianBlur stdDeviation="90"/>
<feComposite in2="hardAlpha" operator="out"/>
<feColorMatrix type="matrix" values="0 0 0 0 0 0 0 0 0 0.92549 0 0 0 0 0.737255 0 0 0 1 0"/>
<feBlend mode="normal" in2="BackgroundImageFix" result="effect1_dropShadow_360_3013"/>
<feBlend mode="normal" in="SourceGraphic" in2="effect1_dropShadow_360_3013" result="shape"/>
</filter>
<radialGradient id="paint0_radial_360_3013" cx="0" cy="0" r="1" gradientUnits="userSpaceOnUse" gradientTransform="translate(64 248) rotate(89.8527) scale(256.001)">
<stop stop-color="#00ECBC"/>
<stop offset="1" stop-color="#00ECBC" stop-opacity="0"/>
</radialGradient>
<linearGradient id="paint1_linear_360_3013" x1="183.732" y1="248" x2="183.732" y2="585" gradientUnits="userSpaceOnUse">
<stop stop-color="#FEF0EE"/>
<stop offset="1" stop-color="#FEF0EE" stop-opacity="0"/>
</linearGradient>
<clipPath id="clip0_360_3013">
<rect width="368" height="560" rx="32" fill="white"/>
</clipPath>
</defs>
</svg>
