<svg width="32" height="33" viewBox="0 0 32 33" fill="none" xmlns="http://www.w3.org/2000/svg">
<path d="M27.2933 3.16669H4.70664C4.45275 3.16316 4.20064 3.20969 3.96473 3.3036C3.72882 3.39752 3.51371 3.53698 3.33171 3.71404C3.1497 3.89109 3.00435 4.10227 2.90397 4.3355C2.80358 4.56874 2.75012 4.81946 2.74664 5.07336V27.9267C2.75012 28.1806 2.80358 28.4313 2.90397 28.6645C3.00435 28.8978 3.1497 29.109 3.33171 29.286C3.51371 29.4631 3.72882 29.6025 3.96473 29.6964C4.20064 29.7904 4.45275 29.8369 4.70664 29.8334H27.2933C27.5472 29.8369 27.7993 29.7904 28.0352 29.6964C28.2711 29.6025 28.4862 29.4631 28.6682 29.286C28.8503 29.109 28.9956 28.8978 29.096 28.6645C29.1964 28.4313 29.2498 28.1806 29.2533 27.9267V5.07336C29.2498 4.81946 29.1964 4.56874 29.096 4.3355C28.9956 4.10227 28.8503 3.89109 28.6682 3.71404C28.4862 3.53698 28.2711 3.39752 28.0352 3.3036C27.7993 3.20969 27.5472 3.16316 27.2933 3.16669ZM10.7866 25.4867H6.78664V13.4867H10.7866V25.4867ZM8.78664 11.8067C8.23499 11.8067 7.70594 11.5875 7.31586 11.1975C6.92578 10.8074 6.70664 10.2783 6.70664 9.72669C6.70664 9.17504 6.92578 8.64598 7.31586 8.25591C7.70594 7.86583 8.23499 7.64669 8.78664 7.64669C9.07957 7.61347 9.37621 7.6425 9.65714 7.73187C9.93807 7.82124 10.197 7.96894 10.4169 8.16531C10.6367 8.36167 10.8127 8.60226 10.9331 8.87133C11.0536 9.1404 11.1159 9.43189 11.1159 9.72669C11.1159 10.0215 11.0536 10.313 10.9331 10.582C10.8127 10.8511 10.6367 11.0917 10.4169 11.2881C10.197 11.4844 9.93807 11.6321 9.65714 11.7215C9.37621 11.8109 9.07957 11.8399 8.78664 11.8067ZM25.2133 25.4867H21.2133V19.0467C21.2133 17.4334 20.64 16.38 19.1866 16.38C18.7369 16.3833 18.2989 16.5244 17.9318 16.7843C17.5646 17.0441 17.286 17.4103 17.1333 17.8334C17.029 18.1467 16.9838 18.4768 17 18.8067V25.4734H13C13 25.4734 13 14.5667 13 13.4734H17V15.1667C17.3633 14.5362 17.8919 14.0167 18.5286 13.6643C19.1653 13.3119 19.8861 13.1398 20.6133 13.1667C23.28 13.1667 25.2133 14.8867 25.2133 18.58V25.4867Z" fill="white"/>
</svg>
