<svg width="32" height="32" viewBox="0 0 32 32" fill="none" xmlns="http://www.w3.org/2000/svg">
<path d="M10.7 8C13.0074 8 15.2203 8.89553 16.8518 10.4896C18.4834 12.0837 19.4 14.2457 19.4 16.5C19.4 18.7543 18.4834 20.9163 16.8518 22.5104C15.2203 24.1045 13.0074 25 10.7 25C8.39262 25 6.17974 24.1045 4.54817 22.5104C2.9166 20.9163 2 18.7543 2 16.5C2 14.2457 2.9166 12.0837 4.54817 10.4896C6.17974 8.89553 8.39262 8 10.7 8ZM23.75 9.41667C25.925 9.41667 27.375 12.5886 27.375 16.5C27.375 20.4114 25.925 23.5833 23.75 23.5833C21.575 23.5833 20.125 20.4114 20.125 16.5C20.125 12.5886 21.575 9.41667 23.75 9.41667ZM29.55 10.125C30.101 10.125 30.5824 11.2966 30.826 13.3068L30.8942 13.9344L30.9217 14.2673L30.9652 14.9672L30.9797 15.3341L30.9971 16.1005L31 16.5L30.9971 16.8995L30.9797 17.6659L30.9652 18.0343L30.9217 18.7327L30.8927 19.0656L30.8275 19.6932C30.5824 21.7048 30.1025 22.875 29.55 22.875C28.999 22.875 28.5176 21.7034 28.274 19.6932L28.2059 19.0656L28.1783 18.7327L28.1348 18.0328L28.1203 17.6659L28.1029 16.8995V16.1005L28.1203 15.3341L28.1348 14.9657L28.1783 14.2673L28.2073 13.9344L28.2726 13.3068C28.5176 11.2952 28.9976 10.125 29.55 10.125Z" fill="white"/>
</svg>
