<svg width="30" height="28" viewBox="0 0 30 28" fill="none" xmlns="http://www.w3.org/2000/svg">
<path d="M27.4852 1.13672L16.5981 9.21373L18.6201 4.44849L27.4852 1.13672Z" fill="#E17726" stroke="#E17726" stroke-width="0.594156" stroke-linecap="round" stroke-linejoin="round"/>
<path d="M2.37256 1.13672L13.1606 9.29017L11.2377 4.44849L2.37256 1.13672Z" fill="#E27625" stroke="#E27625" stroke-width="0.594156" stroke-linecap="round" stroke-linejoin="round"/>
<path d="M23.5739 19.8613L20.6777 24.2993L26.8749 26.0036L28.646 19.9593L23.5739 19.8613Z" fill="#E27625" stroke="#E27625" stroke-width="0.594156" stroke-linecap="round" stroke-linejoin="round"/>
<path d="M1.23047 19.9593L2.99079 26.0036L9.18797 24.2993L6.30256 19.8613L1.23047 19.9593Z" fill="#E27625" stroke="#E27625" stroke-width="0.594156" stroke-linecap="round" stroke-linejoin="round"/>
<path d="M8.84169 12.3641L7.11475 14.9771L13.2581 15.2506L13.0503 8.63672L8.84169 12.3641Z" fill="#E27625" stroke="#E27625" stroke-width="0.594156" stroke-linecap="round" stroke-linejoin="round"/>
<path d="M21.0146 12.3624L16.7403 8.55859L16.5981 15.2489L22.7415 14.9754L21.0146 12.3624Z" fill="#E27625" stroke="#E27625" stroke-width="0.594156" stroke-linecap="round" stroke-linejoin="round"/>
<path d="M9.18799 24.2997L12.8938 22.4953L9.70155 20.0039L9.18799 24.2997Z" fill="#E27625" stroke="#E27625" stroke-width="0.594156" stroke-linecap="round" stroke-linejoin="round"/>
<path d="M16.9629 22.4953L20.6687 24.2997L20.1552 20.0039L16.9629 22.4953Z" fill="#E27625" stroke="#E27625" stroke-width="0.594156" stroke-linecap="round" stroke-linejoin="round"/>
<path d="M20.6687 24.2986L16.9629 22.4941L17.2579 24.9101L17.2256 25.9265L20.6687 24.2986Z" fill="#D5BFB2" stroke="#D5BFB2" stroke-width="0.594156" stroke-linecap="round" stroke-linejoin="round"/>
<path d="M9.18799 24.2986L12.6311 25.9265L12.6096 24.9101L12.8938 22.4941L9.18799 24.2986Z" fill="#D5BFB2" stroke="#D5BFB2" stroke-width="0.594156" stroke-linecap="round" stroke-linejoin="round"/>
<path d="M12.6928 18.4053L9.61035 17.4987L11.7852 16.5039L12.6928 18.4053Z" fill="#233447" stroke="#233447" stroke-width="0.594156" stroke-linecap="round" stroke-linejoin="round"/>
<path d="M17.1646 18.4053L18.0722 16.5039L20.2578 17.4987L17.1646 18.4053Z" fill="#233447" stroke="#233447" stroke-width="0.594156" stroke-linecap="round" stroke-linejoin="round"/>
<path d="M9.18424 24.2993L9.71934 19.8613L6.29883 19.9593L9.18424 24.2993Z" fill="#CC6228" stroke="#CC6228" stroke-width="0.594156" stroke-linecap="round" stroke-linejoin="round"/>
<path d="M20.1401 19.8613L20.6752 24.2993L23.5714 19.9593L20.1401 19.8613Z" fill="#CC6228" stroke="#CC6228" stroke-width="0.594156" stroke-linecap="round" stroke-linejoin="round"/>
<path d="M22.7415 14.9766L16.5981 15.25L17.1666 18.4078L18.0742 16.5065L20.2598 17.5013L22.7415 14.9766Z" fill="#CC6228" stroke="#CC6228" stroke-width="0.594156" stroke-linecap="round" stroke-linejoin="round"/>
<path d="M9.60719 17.5013L11.782 16.5065L12.6896 18.4078L13.2581 15.25L7.11475 14.9766L9.60719 17.5013Z" fill="#CC6228" stroke="#CC6228" stroke-width="0.594156" stroke-linecap="round" stroke-linejoin="round"/>
<path d="M7.11475 14.9766L9.6944 20.0045L9.60719 17.5013L7.11475 14.9766Z" fill="#E27525" stroke="#E27525" stroke-width="0.594156" stroke-linecap="round" stroke-linejoin="round"/>
<path d="M20.2576 17.5013L20.1597 20.0045L22.7393 14.9766L20.2576 17.5013Z" fill="#E27525" stroke="#E27525" stroke-width="0.594156" stroke-linecap="round" stroke-linejoin="round"/>
<path d="M13.2696 15.25L12.7012 18.4078L13.4225 22.1352L13.5754 17.2278L13.2696 15.25Z" fill="#E27525" stroke="#E27525" stroke-width="0.594156" stroke-linecap="round" stroke-linejoin="round"/>
<path d="M16.5958 15.25L16.3008 17.217L16.4429 22.1352L17.1643 18.4078L16.5958 15.25Z" fill="#E27525" stroke="#E27525" stroke-width="0.594156" stroke-linecap="round" stroke-linejoin="round"/>
<path d="M17.1662 18.4065L16.4448 22.1339L16.9692 22.4946L20.1614 20.0032L20.2594 17.5L17.1662 18.4065Z" fill="#F5841F" stroke="#F5841F" stroke-width="0.594156" stroke-linecap="round" stroke-linejoin="round"/>
<path d="M9.61035 17.5L9.69756 20.0032L12.8898 22.4946L13.4141 22.1339L12.6928 18.4065L9.61035 17.5Z" fill="#F5841F" stroke="#F5841F" stroke-width="0.594156" stroke-linecap="round" stroke-linejoin="round"/>
<path d="M17.2327 25.9267L17.265 24.9104L16.9926 24.6703H12.8712L12.6096 24.9104L12.6311 25.9267L9.18799 24.2988L10.3906 25.2818L12.8389 26.9765H17.0249L19.4732 25.2818L20.6758 24.2988L17.2327 25.9267Z" fill="#C0AC9D" stroke="#C0AC9D" stroke-width="0.594156" stroke-linecap="round" stroke-linejoin="round"/>
<path d="M16.9654 22.4954L16.4411 22.1348H13.4135L12.8892 22.4954L12.605 24.9114L12.8666 24.6713H16.988L17.2604 24.9114L16.9654 22.4954Z" fill="#161616" stroke="#161616" stroke-width="0.594156" stroke-linecap="round" stroke-linejoin="round"/>
<path d="M27.9372 9.73913L28.8555 5.27966L27.4785 1.13672L16.9629 8.94134L21.0079 12.3618L26.7238 14.035L27.9813 12.5589L27.4344 12.1659L28.3086 11.367L27.6422 10.8427L28.5164 10.1763L27.9372 9.73913Z" fill="#763E1A" stroke="#763E1A" stroke-width="0.594156" stroke-linecap="round" stroke-linejoin="round"/>
<path d="M1 5.27966L1.92915 9.73913L1.33915 10.1763L2.21338 10.8427L1.54694 11.367L2.42118 12.1659L1.87424 12.5589L3.13176 14.035L8.84769 12.3618L12.8927 8.94134L2.37703 1.13672L1 5.27966Z" fill="#763E1A" stroke="#763E1A" stroke-width="0.594156" stroke-linecap="round" stroke-linejoin="round"/>
<path d="M26.7283 14.0364L21.0124 12.3633L22.7393 14.9763L20.1597 20.0043L23.5694 19.9601H28.6415L26.7283 14.0364Z" fill="#F5841F" stroke="#F5841F" stroke-width="0.594156" stroke-linecap="round" stroke-linejoin="round"/>
<path d="M8.84883 12.3633L3.13291 14.0364L1.23047 19.9601H6.30256L9.70154 20.0043L7.12189 14.9763L8.84883 12.3633Z" fill="#F5841F" stroke="#F5841F" stroke-width="0.594156" stroke-linecap="round" stroke-linejoin="round"/>
<path d="M16.6067 15.2491L16.9782 8.94207L18.6287 4.44922H11.2515L12.902 8.94207L13.2734 15.2491L13.4155 17.2376L13.4263 22.1342H16.4538L16.4646 17.2376L16.6067 15.2491Z" fill="#F5841F" stroke="#F5841F" stroke-width="0.594156" stroke-linecap="round" stroke-linejoin="round"/>
</svg>
