<svg width="32" height="32" viewBox="0 0 32 32" fill="none" xmlns="http://www.w3.org/2000/svg">
<path fill-rule="evenodd" clip-rule="evenodd" d="M25.4104 5.14367C25.7178 5.01646 26.0542 4.97258 26.3847 5.01661C26.7152 5.06064 27.0276 5.19096 27.2895 5.39401C27.5514 5.59706 27.7531 5.86542 27.8737 6.17114C27.9943 6.47687 28.0294 6.8088 27.9753 7.13237L25.1542 23.9581C24.8805 25.5811 23.0695 26.5118 21.5557 25.7034C20.2895 25.027 18.4088 23.985 16.7171 22.8977C15.8713 22.3534 13.2803 20.6106 13.5988 19.3704C13.8724 18.31 18.2259 14.3252 20.7136 11.9561C21.6901 11.0254 21.2448 10.4885 20.0917 11.3446C17.2283 13.4703 12.631 16.7029 11.111 17.6128C9.77017 18.4152 9.07112 18.5521 8.23525 18.4152C6.71028 18.1656 5.29602 17.7792 4.14172 17.3083C2.58192 16.6723 2.6578 14.5637 4.14048 13.9497L25.4104 5.14367Z" fill="white"/>
</svg>
