<svg width="32" height="33" viewBox="0 0 32 33" fill="none" xmlns="http://www.w3.org/2000/svg">
<path d="M29.3334 8.23337C28.3311 8.66816 27.2713 8.95559 26.1867 9.0867C27.3309 8.40313 28.1884 7.32775 28.6 6.06004C27.5248 6.70012 26.3477 7.1511 25.12 7.39337C24.2994 6.50346 23.2066 5.9111 22.0131 5.70917C20.8196 5.50724 19.5927 5.70718 18.5251 6.27762C17.4574 6.84806 16.6093 7.75674 16.1137 8.86115C15.6181 9.96556 15.5031 11.2032 15.7867 12.38C13.6126 12.2701 11.4859 11.704 9.54489 10.7185C7.60385 9.73306 5.89182 8.35029 4.52002 6.66004C4.03887 7.50026 3.78605 8.4518 3.78669 9.42004C3.78498 10.3192 4.00564 11.2049 4.42903 11.9981C4.85241 12.7914 5.46538 13.4676 6.21335 13.9667C5.34399 13.943 4.4932 13.7098 3.73335 13.2867V13.3534C3.73987 14.6132 4.18135 15.8322 4.98311 16.804C5.78487 17.7758 6.8977 18.4409 8.13335 18.6867C7.6577 18.8315 7.16385 18.9078 6.66669 18.9134C6.32254 18.9094 5.97925 18.8781 5.64002 18.82C5.9919 19.9038 6.67285 20.8509 7.58812 21.5296C8.50339 22.2083 9.60746 22.5848 10.7467 22.6067C8.82296 24.1204 6.44787 24.9465 4.00002 24.9534C3.55433 24.9548 3.109 24.9281 2.66669 24.8734C5.16593 26.487 8.07844 27.3437 11.0534 27.34C13.1063 27.3614 15.1429 26.9734 17.0442 26.1988C18.9455 25.4242 20.6734 24.2785 22.127 22.8287C23.5805 21.3788 24.7306 19.6539 25.5101 17.7546C26.2896 15.8553 26.6827 13.8197 26.6667 11.7667C26.6667 11.54 26.6667 11.3 26.6667 11.06C27.713 10.2798 28.6153 9.32327 29.3334 8.23337Z" fill="white"/>
</svg>
